<?xml version="1.0" encoding="UTF-8"?><svg id="b" xmlns="http://www.w3.org/2000/svg" width="72" height="72" viewBox="0 0 72 72"><g id="c"><g><path d="m9.08,35.51c.29,6.62,3.17,12.44,8.09,16.41,5.12,4.12,11.83,5.81,18.41,4.65,3.91-.69,7.79-2.7,11.24-5.82,2.09-1.9,4-4.01,5.67-6.29,4.88-6.66,6.11-15.17,3.22-22.21-3.35-8.14-10.7-13.24-19.67-13.63-6.3.41-11.57-1.22-15.24-4.71-.12-.12-.22-.26-.28-.4C13.3,6.94,7.43,12.71,3.84,19.83c.13.06.26.14.36.25,3.61,3.68,5.3,9.01,4.88,15.42Z" fill="#99d52a"/><path d="m36,0c-4.57,0-8.95.86-12.97,2.42,3.13,2.72,7.58,3.98,12.91,3.62h.07s.07,0,.07,0c10.04.42,18.27,6.11,22.01,15.23,3.23,7.87,1.88,17.34-3.52,24.71-1.77,2.41-3.79,4.66-6.02,6.67-3.81,3.45-8.14,5.68-12.52,6.45-1.51.27-3.02.4-4.53.4-5.79,0-11.42-1.94-15.94-5.57-5.53-4.45-8.75-10.98-9.06-18.38v-.07s0-.07,0-.07c.37-5.47-.95-9.98-3.8-13.12-1.74,4.23-2.71,8.86-2.71,13.72,0,19.88,16.12,36,36,36s36-16.12,36-36S55.88,0,36,0Z" fill="#99d52a"/></g></g></svg>