<svg xmlns="http://www.w3.org/2000/svg" viewBox="31.5 91 304.5 150.5">
  <path fill="none" stroke="#c6d785" stroke-width="1.4"
    d="M186.228 99.225a3.436 3.436 0 0 1-.777-2.059.959.959 0 0 0-.223-.609 17.824 17.824 0 0 0-4.305-3.457" />
  <path fill="none" stroke="#d8e081" stroke-width="1.4"
    d="M180.922 93.1c-.902.156-1.023.46-.363.914 1.808 1.246 2.937 2.102 3.386 2.563 1.032 1.066 1.247 2.168.637 3.304-.656 1.223-1.55 1.73-2.68 1.528-.64-.118-1.378-.598-2.21-1.438a649.62 649.62 0 0 1-2.325-2.324c-.004 0-.129-.164-.37-.496-.192-.258-.442-.266-.743-.028" />
  <path fill="none" stroke="#666b1f" stroke-width="1.4" d="M181.475 102.928c-2.559-.09-4.375-1.266-5.453-3.531" />
  <path fill="none" stroke="#526221" stroke-width="1.4" d="M155.05 140.553c-.45-1.625-1.371-2.86-2.773-3.703" />
  <path fill="none" stroke="#bfd571" stroke-width="1.4"
    d="M152.278 136.85a8.864 8.864 0 0 0 .988 3.805c.258.504.367.941.336 1.312-.039.387-.125.852-.258 1.399-.129.523.141.683.805.484" />
  <path fill="none" stroke="#d4de70" stroke-width="1.4"
    d="M146.65 145.572a5.55 5.55 0 0 0-.816-2.7c-.094-.155-.16-.366-.204-.636l-.582-3.633" />
  <path fill="none" stroke="#d2de6f" stroke-width="1.4"
    d="M151.55 136.297c-.578-.098-.789.066-.625.496a27.278 27.278 0 0 1 1.64 6.7c.02.23-.05.456-.19.624-1.204 1.356-2.427 1.688-3.669.985-.867-.489-1.449-1.422-1.742-2.797a31.659 31.659 0 0 1-.531-3.489c-.067-.628-.403-.945-1.008-.945" />
  <path fill="none" stroke="#666b1f" stroke-width="1.4" d="M148.575 135.772a9.425 9.425 0 0 0-3.148 2.098" />
  <path fill="none" stroke="#6c7251" stroke-width="1.4" d="M145.425 137.872a1.21 1.21 0 0 0-.379.73" />
  <path fill="none" stroke="#676b20" stroke-width="1.4" d="M145.047 138.6a5.77 5.77 0 0 0-.875 3.148" />
  <path fill="none" stroke="#9caa86" stroke-opacity=".992" stroke-width="1.4"
    d="M137.9 118.503c-.059.32.008.602.203.848" />
  <path fill="none" stroke="#737662" stroke-width="1.4" d="M138.103 119.35c-.61 2.121-2.02 3.277-4.227 3.469" />
  <path fill="none" stroke="#d8e081" stroke-width="1.4"
    d="M133.875 122.822c-1.422-.207-2.488-.941-3.191-2.203-.301-.527-1.055-1.59-2.262-3.192" />
  <path fill="none" stroke="#273322" stroke-opacity=".992" stroke-width="1.4"
    d="M138.803 119c-.063.36-.297.477-.703.352" />
  <path fill="none" stroke="#b8ce3f" stroke-width="1.4" d="M133.525 122.878h-2.098" />
  <path fill="none" stroke="#666b1f" stroke-width="1.4" d="M131.425 122.878c-2.066-.855-3.36-2.383-3.879-4.578" />
  <path fill="none" stroke="#d8e081" stroke-width="1.4"
    d="M132.503 113.225c.02.457.254.852.715 1.18.902.66 1.785 1.5 2.644 2.523.41.488.668.95.77 1.38.14.577.113 1.124-.078 1.644-.266.722-.79 1.23-1.567 1.523-1.566.598-3.047-.21-4.43-2.426a11.394 11.394 0 0 1-.952-1.855c-.09-.219-.465-.203-1.13.054" />
  <path fill="none" stroke="#c6d785" stroke-width="1.4" d="M137.9 118.503a20.084 20.084 0 0 0-4.723-5.48" />
  <path fill="none" stroke="#6c7251" stroke-width="1.4" d="M103.453 160.3c.152-.82.137-1.64-.055-2.45" />
  <path fill="none" stroke="#526221" stroke-width="1.4" d="M103.397 157.85c-.453-1.82-1.613-2.996-3.473-3.531" />
  <path fill="none" stroke="#bfd571" stroke-width="1.4"
    d="M103.397 157.85c-.492.086-.852-.031-1.086-.352-.176-.246-.344-.421-.469-.468l-4.894-1.953" />
  <path fill="none" stroke="#d2de6f" stroke-width="1.4"
    d="m103.075 161.728-.246-.027c-.133-.012-.23-.141-.223-.286.11-2.324-.918-3.789-3.074-4.398-1.398-.39-2.445-.812-3.133-1.266" />
  <path fill="none" stroke="#666b1f" stroke-width="1.4" d="M95.522 155.225c-1.64 1.187-2.445 2.813-2.422 4.871" />
  <path fill="none" stroke="#d1de90" stroke-width="1.4" d="M96.95 155.078c-.316.137-.5.36-.55.672" />
  <path fill="none" stroke="#d8e081" stroke-width="1.4"
    d="m102.522 162.05-.234-.035c-.172-.028-.328-.008-.403.055-1.289 1.02-2.66 1.07-4.11.16-.784-.489-1.948-1.176-3.495-2.063-.41-.234-.754-.25-1.035-.043" />
  <path fill="none" stroke="#676b20" stroke-width="1.4"
    d="M79.478 132.65c-.441 2.121-1.617 3.703-3.527 4.754M73.003 137.725c-1.984-.902-3.344-2.36-4.082-4.375" />
  <path fill="none" stroke="#dbe284" stroke-width="1.4"
    d="M100.45 164.353c-1.566-.406-2.488-.719-2.758-.945A13.986 13.986 0 0 0 93.653 161" />
  <path fill="none" stroke="#273322" stroke-opacity=".992" stroke-width="1.4"
    d="M50.05 159.628c-.09-1.39-.788-2.344-2.1-2.855" />
  <path fill="none" stroke="#666b1f" stroke-width="1.4" d="M47.95 156.772a1.711 1.711 0 0 0-.727-.5" />
  <path fill="none" stroke="#676b20" stroke-width="1.4" d="M47.629 163.8c.691-.098 1.207-.438 1.547-1.023" />
  <path fill="none" stroke="#bbcf40" stroke-width="1.4"
    d="M282.625 232.547c-1.84-.977-1.543-1.52.883-1.637a24.606 24.606 0 0 0 4.605-.66c.34-.082 1.438-.48 3.297-1.187a16.723 16.723 0 0 1 3.414-.907.17.17 0 0 0 .094-.035l6.824-4.785c.102-.07.278-.238.524-.504a71.052 71.052 0 0 0 4.515-5.285c.996-1.293 1.797-2.566 2.403-3.824.714-1.485 1.253-2.899 1.617-4.246.37-1.39.187-2.793-.555-4.203" />
  <path fill="none" stroke="#aac74b" stroke-width="1.4"
    d="M286.125 154.553a3.262 3.262 0 0 1-1.938-1.41c-.734-1.113-1.734-1.68-2.996-1.692-1.328-.015-2.003-.023-2.03-.027a21.933 21.933 0 0 1-3.579-.836c-1.156-.37-2.242-.543-3.262-.512-1.593.047-3.28.07-5.058.07-.239 0-.477.024-.715.067-2 .363-3.758.469-5.278.32-.187-.015-.414.02-.671.098l-2.262.707a.874.874 0 0 0-.496.399c-.39.66-.887.75-1.492.273a.983.983 0 0 0-1.297.078c-.41.402-.785.524-1.125.363" />
  <path fill="none" stroke="#586428" stroke-width="1.4"
    d="M273.672 158.375a.98.98 0 0 1-.453-.488c-.102-.235-.254-.395-.422-.442a17.196 17.196 0 0 0-5.355-.617.425.425 0 0 0-.407.356l-1.183 6.617" />
  <path fill="none" stroke="#bbd069" stroke-width="1.4"
    d="M265.853 163.8c-.004-.438-.184-.629-.543-.574-.18.027-.355.144-.527.347a17.462 17.462 0 0 1-2.625 2.5c-.043.036-.332.192-.875.47-.465.237-.692.667-.68 1.28" />
  <path fill="none" stroke="#586428" stroke-width="1.4" d="M260.603 167.825c-2.16.852-3.266 2.484-3.324 4.902" />
  <path fill="none" stroke="#bfd04a" stroke-width="1.4"
    d="M257.278 172.725c.164-.902-.086-1.285-.75-1.148-.207.039-.426.03-.656-.028a1.397 1.397 0 0 0-1.043.125" />
  <path fill="none" stroke="#586428" stroke-width="1.4"
    d="M254.828 171.675c.645-2.617-.184-3.961-2.477-4.027a256.143 256.143 0 0 1-10.531-.524" />
  <path fill="none" stroke="#5f6820" stroke-width="1.4"
    d="M310.947 174.65a162.855 162.855 0 0 0-14.153-.027c-.043 0-.5-.024-1.37-.075-.981-.058-1.731.34-2.255 1.196-.539.883-.363 1.32.524 1.316 3.898-.02 7.789-.12 11.676-.308 2.031-.098 3.84.195 5.433.875.372.16.672.507.903 1.05" />
  <path fill="none" stroke="#676b20" stroke-width="1.4"
    d="M312.025 180.397a83.924 83.924 0 0 1-1.852 11.289c-.253 1.047-.914 1.61-1.984 1.687a223.36 223.36 0 0 1-15.586.594 40.748 40.748 0 0 1-7.121-.586c-.504-.086-.875-.492-.883-.96l-.055-5.473c0-.196.168-.352.387-.356 5.77-.055 11.535-.086 17.297-.101 1.527-.004 2.078-.676 1.652-2.016a.528.528 0 0 0-.472-.356c-4.996-.336-8.54-.402-10.633-.195-4.489.445-6.762-1.535-6.825-5.95-.011-.991.454-3.374 1.403-7.148M254.828 171.675a348.603 348.603 0 0 0-1.96 16.73c-.157 1.676-.458 2.833-.903 3.477-.742 1.082-1.899 1.692-3.465 1.828-1.457.125-2.914.2-4.375.22" />
  <path fill="none" stroke="#5a6621" stroke-width="1.4" d="M244.125 193.928a45.735 45.735 0 0 0-8.078.32" />
  <path fill="none" stroke="#273322" stroke-opacity=".992" stroke-width="1.4"
    d="M273.672 161.7c-.582.426-.68.95-.293 1.574" />
  <path fill="none" stroke="#5d6828" stroke-width="1.4"
    d="m273.378 163.275-.566 3.55c-.067.434.242.825.656.825h8.371c.047 0 .45-.027 1.207-.09 1.344-.101 1.738.63 1.18 2.192" />
  <path fill="none" stroke="#676b20" stroke-width="1.4"
    d="M284.228 169.75c-.125 1.844-.828 3.258-2.105 4.25-.715.555-1.743.816-3.082.789-2.32-.05-4.594-.082-6.817-.09a.582.582 0 0 0-.582.512l-1.363 10.508a.833.833 0 0 0 .812.957l9.875.05c.336 0 .602.266.61.602.011 2.379-.625 4.293-1.903 5.746-.148.168-.36.285-.582.328a23.474 23.474 0 0 1-5.902.496c-2.762-.11-4.172-.164-4.227-.16-1.894 0-3.64-.012-5.234-.043-1.262-.023-1.816-.672-1.668-1.953l1.938-16.691a.309.309 0 0 0-.313-.352l-6.215.078a.332.332 0 0 1-.332-.351l.14-1.7" />
  <path fill="none" stroke="#646b40" stroke-width="1.4"
    d="m260.603 167.825 4.035-.176c.34-.012.63-.222.672-.504l.543-3.343" />
  <path fill="none" stroke="#c1d143" stroke-width="1.4"
    d="m263.053 221.2-3.031-1.246c-.086-.035-.25-.188-.5-.453l-1.813-1.953c-.125-.133-.363-.192-.629-.149-1.195.184-1.418.516-.664 1 .2.13.192.223-.027.29-1.219.347-2.203.011-2.95-1.016-.429-.594-.71-.7-.847-.317-.055.157-.23.219-.348.13a9.257 9.257 0 0 1-2.703-3.579c-.8-1.887-1.3-3.012-1.492-3.375a22.993 22.993 0 0 1-1.61-3.96c-.081-.286-.152-.81-.202-1.575a4.183 4.183 0 0 0-.399-1.582c-.476-1.024-.75-1.734-.824-2.137-.371-1.992-.8-3.972-1.29-5.941-.042-.176.048-.387.223-.52.301-.226.36-.523.176-.886" />
  <path fill="none" stroke="#5d6828" stroke-width="1.4"
    d="M305.025 167.097c-7.507.39-11.941.46-13.297.203-1.703-.324-2.875.25-3.508 1.723-.266.61-.555 1.21-.867 1.804" />
  <path fill="none" stroke="#c5d449" stroke-width="1.4"
    d="M287.35 170.828c-.383-.965-1.027-1.59-1.934-1.867-.168-.051-.351.055-.441.25-.137.293-.383.472-.75.539" />
  <path fill="none" stroke="#d2de6f" stroke-width="1.4"
    d="M44.164 157.633a.536.536 0 0 0-.289.184c-.574.66-.601.976-.082.945a2.55 2.55 0 0 0 1.196-.402c1.675-1.07 1.402-1.313-.825-.727" />
  <path fill="#a3c343"
    d="M186.23 99.227a3.437 3.437 0 0 1-.777-2.059.959.959 0 0 0-.223-.609 17.824 17.824 0 0 0-4.305-3.457l-.175-.527c1.984-.371 3.582.312 4.796 2.058 1.036 1.48 1.266 3.012.684 4.594z" />
  <path fill="#cad63d"
    d="m180.75 92.574.176.527c-.903.157-1.024.461-.363.914 1.808 1.246 2.937 2.102 3.386 2.563 1.031 1.066 1.246 2.168.637 3.305-.656 1.222-1.55 1.73-2.68 1.527-.64-.117-1.379-.598-2.21-1.438-.778-.773-1.551-1.547-2.325-2.324-.004 0-.129-.164-.371-.496-.191-.258-.441-.266-.742-.027-.082-3.024 1.418-4.54 4.492-4.551z" />
  <path fill="#e6ebc6"
    d="M180.92 93.102a17.824 17.824 0 0 1 4.305 3.457.959.959 0 0 1 .222.61c.036.773.293 1.46.778 2.058a6.773 6.773 0 0 1-3 3l-2.25.148-4.953-4.726a.855.855 0 0 1 .23-.524c.3-.238.55-.23.742.028.242.332.367.496.371.496.774.777 1.547 1.55 2.325 2.324.832.84 1.57 1.32 2.21 1.438 1.13.203 2.024-.305 2.68-1.528.61-1.136.395-2.238-.637-3.304-.449-.461-1.578-1.317-3.386-2.563-.66-.453-.54-.758.363-.914z" />
  <path fill="#cad63d"
    d="m176.02 97.648 4.953 4.727 1.05.351c-.124.172-.308.238-.55.203-2.558-.09-4.375-1.265-5.453-3.53a2.499 2.499 0 0 1 0-1.75z" />
  <path
    d="M176.02 99.398c1.078 2.266 2.894 3.441 5.453 3.531l-26.426 37.625c-.45-1.625-1.371-2.86-2.773-3.703l-.727-.555-1.226-.523z" />
  <path fill="#c8d680" d="M183.23 102.23a1.892 1.892 0 0 1-1.2.5l-1.05-.352z" />
  <path fill="#a3c343"
    d="m138.57 118.48-.672.027a20.085 20.085 0 0 0-4.723-5.48c.395-.36.805-.469 1.223-.324 2.602.906 3.992 2.832 4.172 5.777z" />
  <path fill="#cad63d"
    d="M132.5 113.23c.02.457.254.852.715 1.18.902.66 1.785 1.5 2.644 2.523.41.488.668.95.77 1.379.14.578.113 1.125-.078 1.645-.266.722-.79 1.23-1.567 1.523-1.566.598-3.047-.211-4.43-2.426a11.393 11.393 0 0 1-.952-1.855c-.09-.22-.465-.204-1.13.054-.382-1.586.087-2.75 1.403-3.492.086-.05.367-.238.84-.562.55-.375 1.144-.368 1.785.03z" />
  <path fill="#e6ebc6"
    d="M133.18 113.02a20.087 20.087 0 0 1 4.723 5.48c-.059.32.008.602.203.848-.61 2.121-2.02 3.277-4.227 3.469-1.422-.207-2.488-.941-3.191-2.203-.301-.527-1.055-1.59-2.262-3.192l.055-.175c.664-.258 1.039-.274 1.129-.055.261.648.578 1.266.953 1.855 1.383 2.215 2.863 3.024 4.43 2.426.777-.293 1.3-.8 1.566-1.523.191-.52.219-1.067.078-1.645-.102-.43-.36-.89-.77-1.379-.859-1.023-1.742-1.863-2.644-2.523-.46-.328-.695-.723-.715-1.18z" />
  <path fill="#cad63d"
    d="M128.42 117.43c1.207 1.602 1.96 2.664 2.262 3.191.703 1.262 1.77 1.997 3.191 2.204l-.351.058h-2.098c-2.067-.855-3.36-2.383-3.88-4.578.048-.574.34-.867.876-.875z" />
  <path
    d="M127.55 118.3c.52 2.195 1.813 3.723 3.879 4.578l.875.348a2.18 2.18 0 0 0-.863.695 3893.634 3893.634 0 0 1-24.203 31.926c-.02.02-.454.652-1.305 1.898a10.323 10.323 0 0 1-2.477 2.555c.153-.82.137-1.64-.054-2.449-.453-1.82-1.614-2.996-3.473-3.531z" />
  <path fill="#4e6746" fill-opacity=".98"
    d="m137.9 118.5.672-.027a.883.883 0 0 1 .234.523c-.062.36-.297.477-.703.352a1.008 1.008 0 0 1-.203-.848z" />
  <path
    d="m138.8 119 9.77 16.773a9.425 9.425 0 0 0-3.149 2.098 1.21 1.21 0 0 0-.379.73 5.77 5.77 0 0 0-.875 3.149l-10.676-18.551.028-.32.351-.06c2.207-.19 3.617-1.347 4.227-3.468.406.125.64.008.703-.352z" />
  <path fill="#a3c343" d="M131.43 122.88h2.098l-.028.32-1.195.028z" />
  <path fill="#ced740"
    d="M79.477 132.65c-.441 2.121-1.617 3.703-3.527 4.754l-2.946.324c-1.984-.902-3.343-2.36-4.082-4.375-.21-1.101-.07-2.074.414-2.914.356-.617.934-1.34 1.735-2.168 1.46-1.5 3.32-1.73 5.578-.695 2.035.933 2.98 2.625 2.828 5.074z" />
  <path
    d="M79.477 132.65c.875.566 2.047 1.777 3.516 3.633a987.538 987.538 0 0 1 13.957 18.039l-.551.379-.875.527c-1.64 1.188-2.445 2.813-2.422 4.871a1304.11 1304.11 0 0 1-15.094-19.53c-1.004-1.321-1.688-2.376-2.059-3.165 1.91-1.05 3.086-2.633 3.528-4.754zM68.922 133.35c.738 2.016 2.098 3.473 4.082 4.375-.875 1.168-3.113 3.723-6.723 7.656a1648.67 1648.67 0 0 1-15.707 16.871l-.496-.027c.414-.887.406-1.754-.027-2.598-.09-1.39-.79-2.344-2.102-2.855a1.711 1.711 0 0 0-.726-.5 1074.394 1074.394 0 0 1 17.66-19.117c1.847-1.953 3.195-3.223 4.039-3.805z" />
  <path fill="#cad63d"
    d="M148.57 135.77h1.75l1.227.523c-.579-.097-.79.067-.625.497a27.276 27.276 0 0 1 1.64 6.699c.02.23-.05.457-.191.625-1.203 1.355-2.426 1.687-3.668.984-.867-.488-1.45-1.422-1.742-2.797a31.66 31.66 0 0 1-.532-3.488c-.066-.629-.402-.945-1.007-.945a9.426 9.426 0 0 1 3.148-2.098z" />
  <path fill="#d9e5a1"
    d="m151.55 136.3.727.555a8.863 8.863 0 0 0 .988 3.804c.258.504.367.942.336 1.313-.04.387-.125.851-.258 1.398-.129.524.14.684.805.485-1.907 2.75-4.407 3.324-7.5 1.718a5.55 5.55 0 0 0-.817-2.699c-.093-.156-.16-.367-.203-.636l-.582-3.633a1.21 1.21 0 0 1 .379-.73c.605 0 .941.316 1.008.945a31.66 31.66 0 0 0 .531 3.488c.293 1.375.875 2.308 1.742 2.797 1.242.703 2.465.37 3.668-.985a.863.863 0 0 0 .192-.625 27.278 27.278 0 0 0-1.64-6.699c-.165-.43.046-.594.624-.496z" />
  <path fill="#a3c343"
    d="M152.28 136.85c1.402.844 2.324 2.078 2.773 3.703l-.902 3.297c-.664.2-.934.04-.805-.484.133-.547.22-1.012.258-1.399.031-.37-.078-.808-.336-1.312a8.863 8.863 0 0 1-.988-3.805z" />
  <path fill="#ced740"
    d="m145.05 138.6.582 3.633c.043.27.11.48.203.637a5.55 5.55 0 0 1 .817 2.699c-1.258-.969-2.086-2.242-2.477-3.82a5.77 5.77 0 0 1 .875-3.149z" />
  <path fill="#a3c343"
    d="M282.62 232.55c-1.84-.977-1.543-1.52.883-1.637a24.606 24.606 0 0 0 4.605-.66c.34-.082 1.438-.48 3.297-1.187a16.726 16.726 0 0 1 3.414-.907.17.17 0 0 0 .094-.035l6.824-4.785c.102-.07.278-.238.524-.504a71.043 71.043 0 0 0 4.515-5.285c.996-1.293 1.797-2.566 2.403-3.824.714-1.485 1.254-2.899 1.617-4.246.37-1.391.187-2.793-.555-4.203 7.492-7.625 9.95-16.957 7.379-28-.883-3.793-2.047-6.778-3.5-8.954l-.672-1.195c-4.348-7.008-10.527-11.105-18.535-12.293-2.406-.355-5.336-.445-8.793-.277a3.262 3.262 0 0 1-1.937-1.41c-.735-1.114-1.735-1.68-2.996-1.692-1.329-.015-2.004-.023-2.032-.027a21.93 21.93 0 0 1-3.578-.836c-1.156-.371-2.242-.543-3.261-.512-1.594.047-3.282.07-5.06.07-.237 0-.476.024-.714.067-2 .363-3.758.469-5.277.32-.188-.015-.414.02-.672.098l-2.262.707a.874.874 0 0 0-.496.398c-.39.66-.887.75-1.492.274a.983.983 0 0 0-1.297.078c-.41.402-.785.523-1.125.363 15.473-10.086 31.164-10.676 47.074-1.777 7.29 4.078 12.84 9.824 16.652 17.234 2.11 4.101 3.559 8.512 4.34 13.234 1.89 11.406-.496 22.14-7.16 32.203-3.614 5.453-8.352 9.926-14.223 13.41-5.68 3.363-11.676 5.293-17.984 5.789z" />
  <path fill="#afc952"
    d="M286.12 154.55c-4.234.582-6.96 1.168-8.184 1.762-.773.383-1.894.601-3.367.66-.75.027-1.05.492-.902 1.398a.98.98 0 0 1-.453-.488c-.102-.234-.254-.395-.422-.441a17.196 17.196 0 0 0-5.356-.618.425.425 0 0 0-.406.356l-1.183 6.617c-.004-.437-.184-.629-.543-.574-.18.027-.356.144-.528.347a17.467 17.467 0 0 1-2.625 2.5c-.043.036-.332.192-.875.47-.465.238-.691.667-.68 1.28-2.16.852-3.265 2.485-3.324 4.903.164-.903-.086-1.285-.75-1.149-.207.04-.425.032-.656-.027a1.397 1.397 0 0 0-1.043.125c.645-2.617-.184-3.96-2.477-4.027a256.03 256.03 0 0 1-10.53-.524c.066-1.058.484-2.168 1.253-3.324 3.07-4.637 6.688-8.418 10.852-11.348.34.16.715.04 1.125-.363a.983.983 0 0 1 1.297-.078c.606.476 1.102.386 1.492-.274a.874.874 0 0 1 .497-.398l2.261-.707c.258-.078.485-.114.672-.098 1.52.149 3.277.043 5.277-.32.239-.043.477-.067.715-.067 1.778 0 3.465-.023 5.059-.07 1.02-.031 2.105.14 3.262.512 1.168.379 2.359.656 3.578.836.027.004.703.011 2.03.027 1.263.012 2.263.578 2.997 1.691a3.263 3.263 0 0 0 1.937 1.41z" />
  <path fill="#a3c343"
    d="M99.926 154.32c1.86.535 3.02 1.71 3.473 3.531-.492.086-.852-.031-1.086-.351-.176-.246-.344-.422-.469-.47l-4.894-1.952-.551-.38.55-.378z" />
  <path fill="#c8d680" d="m96.398 154.7.55.379c-.316.137-.5.36-.55.672l-.875-.524z" />
  <path fill="#d9e5a1"
    d="m96.949 155.08 4.894 1.953c.125.047.293.223.47.469.234.32.593.437 1.085.351.192.809.207 1.63.055 2.45l-.38 1.425-.245-.027c-.133-.012-.23-.14-.223-.285.11-2.324-.918-3.79-3.074-4.398-1.398-.391-2.445-.813-3.133-1.266.051-.313.235-.535.551-.672z" />
  <path fill="#cad63d"
    d="m95.523 155.23.875.523c.688.454 1.734.875 3.133 1.266 2.156.61 3.183 2.074 3.074 4.398-.008.145.09.274.223.286l.246.027-.551.324-.234-.035c-.172-.027-.329-.008-.403.055-1.289 1.02-2.66 1.07-4.11.16-.784-.488-1.948-1.176-3.495-2.063-.41-.234-.754-.25-1.035-.043l-.145-.027c-.023-2.059.781-3.684 2.422-4.871zM47.223 156.27c.293.11.535.273.727.5l-.524.523c-.879.04-.96.25-.246.637 1.926 1.059 2.535 2.656 1.82 4.79l-1.398.929-4.777 1.906c-.23.09-.461.098-.621.012-1.051-.57-1.747-1.66-2.086-3.274a1.424 1.424 0 0 1 .672-1.515c.488-.281.992-.64 1.503-1.078.477-.403.32-.371-.468.101-1.2.707-1.676.559-1.426-.449.078-.316.23-.629.453-.937 1.516-2.086 3.64-2.801 6.371-2.145zm-3.059 1.36a.536.536 0 0 0-.289.183c-.574.66-.601.977-.082.945a2.55 2.55 0 0 0 1.196-.402c1.675-1.07 1.402-1.313-.825-.727z" />
  <path
    d="M127.06 156.77a.585.585 0 0 1 .523.672 1880.747 1880.747 0 0 1-4.906 33.828c-.136.863-.64 1.535-1.511 2.012-.532.289-1.305.449-2.313.48-6.426.227-12.848.227-19.27.008-1.14-.043-1.918-.235-2.34-.582-.664-.543-.937-1.418-.816-2.617.894-8.774 1.945-15.656 3.148-20.648.219-.914.809-1.567 1.766-1.953.508-.208 1.328-.329 2.465-.372 4.343-.16 8.894-.195 13.656-.113.941.016 1.449-.445 1.523-1.379.215-2.761.762-5.383 1.633-7.86a1.893 1.893 0 0 1 1.387-1.226 15.694 15.694 0 0 1 5.054-.25zm-22.312 29.469 9.934.168c.968.02 1.515-.477 1.644-1.492l1.262-9.414a.455.455 0 0 0-.453-.504h-10.117a1.15 1.15 0 0 0-1.125.918 68.52 68.52 0 0 0-1.41 10.016c-.012.16.113.3.265.308zM167.98 156.74a.697.697 0 0 1 .566.8 447.567 447.567 0 0 0-2.605 18.517c-.488 4.11-1.11 8.199-1.856 12.27-.332 1.82-.546 2.844-.644 3.066-.457 1.074-1.332 1.785-2.625 2.133a11.653 11.653 0 0 1-3.918.379.873.873 0 0 1-.805-.992c.922-6.754 1.86-13.484 2.805-20.188.762-5.383 1.414-9.473 1.953-12.273.254-1.278.719-2.192 1.394-2.735.88-.715 1.946-1.043 3.2-.98.382.015.8.004 1.257-.035a4.488 4.488 0 0 1 1.278.039z" />
  <path fill="#4e6746" fill-opacity=".98"
    d="M47.949 156.77c1.313.512 2.012 1.465 2.102 2.856-.438-1.282-1.313-2.055-2.625-2.332z" />
  <path
    d="m215.11 167.46 9.324.168c1.031.02 1.512.516 1.442 1.492-.32 4.367-2.758 6.38-7.313 6.04a60.9 60.9 0 0 0-4.426-.16.81.81 0 0 0-.812.687l-1.414 10.21a.638.638 0 0 0 .652.708l10.008-.02c.45 0 .8.399.75.852-.219 1.996-.687 3.62-1.406 4.886-.5.887-1.258 1.356-2.274 1.403-4.207.195-8.41.246-12.617.152-1.128-.023-2.007-.395-2.636-1.113-.485-.551-.657-1.371-.512-2.465.64-4.871 1.285-9.77 1.938-14.691a.538.538 0 0 0-.54-.61h-6.117a.65.65 0 0 1-.648-.68c.078-1.663.484-3.35 1.215-5.058.343-.8.957-1.23 1.843-1.289l4.73-.308a.932.932 0 0 0 .856-.813l1.426-9.66c.035-.215.211-.38.414-.363l4.977.285c.953.054 1.383.597 1.297 1.633l-.715 8.035c-.035.36.223.672.558.68zM273.67 158.38v3.324c-.582.426-.68.95-.293 1.574l-.566 3.551c-.067.434.242.824.656.824h8.371c.047 0 .45-.027 1.207-.09 1.344-.101 1.738.63 1.18 2.192-.125 1.844-.828 3.258-2.106 4.25-.715.555-1.742.816-3.082.789-2.32-.05-4.594-.082-6.816-.09a.582.582 0 0 0-.582.512l-1.364 10.508a.833.833 0 0 0 .813.957l9.875.05c.336 0 .602.266.61.602.011 2.38-.626 4.293-1.903 5.746-.148.168-.36.286-.582.329a23.473 23.473 0 0 1-5.902.496c-2.762-.11-4.172-.164-4.227-.16-1.894 0-3.64-.012-5.234-.044-1.262-.023-1.817-.671-1.668-1.953l1.937-16.69a.309.309 0 0 0-.312-.352l-6.215.078a.332.332 0 0 1-.332-.352l.14-1.699c.06-2.418 1.165-4.05 3.325-4.902l4.035-.176c.34-.012.629-.223.672-.504l.543-3.344 1.183-6.617a.425.425 0 0 1 .407-.355c1.82-.075 3.605.129 5.355.617.168.047.32.207.422.441a.98.98 0 0 0 .453.489z" />
  <path fill="#d9e5a1"
    d="M44.164 157.63c2.227-.586 2.5-.344.824.727a2.55 2.55 0 0 1-1.195.402c-.52.031-.492-.285.082-.945a.536.536 0 0 1 .289-.184z" />
  <path fill="#e6ebc6"
    d="M102.52 162.05c-.082 1.234-.77 2.004-2.074 2.3-1.567-.405-2.489-.718-2.758-.945a13.986 13.986 0 0 0-4.04-2.406l-.405-.875c.28-.207.625-.191 1.035.043a122.04 122.04 0 0 1 3.496 2.063c1.45.91 2.82.86 4.11-.16.074-.063.23-.082.402-.055z" />
  <path fill="#bacf4f"
    d="M305.02 167.1c-7.508.39-11.941.46-13.297.203-1.703-.324-2.875.25-3.508 1.723-.265.61-.554 1.21-.867 1.805-.383-.965-1.027-1.59-1.934-1.868-.168-.05-.351.055-.441.25-.137.293-.383.473-.75.54.559-1.563.164-2.294-1.18-2.192-.758.062-1.16.09-1.207.09h-8.37c-.415 0-.723-.39-.657-.824l.566-3.551.496-.375c.672.312 1.243.422 1.707.336 1.149-.23 2.532-.617 4.145-1.164 1.934-.653 3.305-1.063 4.117-1.223 6.496-1.313 12.68-.211 18.555 3.3 1.277.762 2.152 1.747 2.625 2.95z" />
  <path fill="#ced740"
    d="M93.652 161a13.988 13.988 0 0 1 4.04 2.406c.269.227 1.19.54 2.757.946-.953.636-2.059.742-3.324.324-1.95-.649-3.11-1.875-3.473-3.676z" />
  <path fill="#4e6746" fill-opacity=".98" d="m273.67 161.7.203 1.2-.496.374c-.387-.625-.289-1.148.293-1.574z" />
  <path fill="#ced740"
    d="m50.078 162.23.496.027a76.996 76.996 0 0 1-1.02 1.723c-1.234 1.992-3.007 2.84-5.328 2.547-.257-.035-.468-.156-.574-.316-.199-.301-.066-.536.407-.7 1.578-.558 2.765-1.129 3.57-1.707.691-.097 1.207-.437 1.547-1.023.418.004.718-.18.902-.55z" />
  <path d="m49 162.72.176.055c-.34.586-.856.925-1.547 1.023l-.027-.148z" />
  <path fill="#c8d680"
    d="m265.85 163.8-.543 3.344c-.043.281-.332.492-.672.504l-4.035.175c-.012-.613.215-1.043.68-1.28.543-.278.832-.434.875-.47a17.466 17.466 0 0 0 2.625-2.5c.172-.203.347-.32.527-.347.36-.055.539.137.543.574z" />
  <path
    d="M241.82 167.12c3.508.246 7.016.422 10.531.523 2.293.067 3.121 1.41 2.477 4.028a348.695 348.695 0 0 0-1.961 16.73c-.157 1.676-.457 2.832-.903 3.476-.742 1.082-1.898 1.692-3.464 1.828-1.457.125-2.915.2-4.375.22a45.737 45.737 0 0 0-8.079.32l-7.859-.524c-1.625-.11-2.437-.93-2.437-2.465 0-3.426.445-6.926 1.335-10.5.34-1.367.813-2.312 1.407-2.836.718-.629 1.62-.925 2.703-.89a95.53 95.53 0 0 0 1.351.043c4.371-.125 8.746-.192 13.117-.196.239 0 .457-.062.633-.187.88-.598.922-1.094.125-1.485-.289-.14-.664-.21-1.129-.21-3.945.003-7.894.054-11.836.152-3.515.086-4.976-2.078-4.39-6.496a1.208 1.208 0 0 1 1.148-1.043zm3.813 17.734a.664.664 0 0 0-.668-.652l-10.516.148a.661.661 0 0 0-.649.668l.012.77c.008.363.3.652.668.648l10.512-.148a.658.658 0 0 0 .648-.664zM305.02 167.1c2.813.316 5.621.324 8.43.027l.672 1.196c-.387-.051-.579.093-.567.437.004.305-.004.504-.023.586a52.711 52.711 0 0 1-.844 3.445c-.063.215-.184.41-.352.567l-1.394 1.293a162.842 162.842 0 0 0-14.152-.028c-.043 0-.5-.023-1.371-.074-.98-.058-1.73.34-2.254 1.196-.54.882-.363 1.32.523 1.316 3.899-.02 7.79-.121 11.676-.309 2.032-.097 3.84.196 5.434.875.371.16.672.508.902 1.051l.32 1.723a83.92 83.92 0 0 1-1.851 11.289c-.254 1.047-.914 1.61-1.984 1.687-5.192.38-10.391.578-15.586.594a40.748 40.748 0 0 1-7.121-.586c-.504-.086-.875-.492-.883-.96l-.055-5.473c0-.196.168-.352.387-.356 5.77-.055 11.535-.086 17.297-.102 1.527-.003 2.078-.675 1.652-2.015a.528.528 0 0 0-.473-.356c-4.996-.336-8.539-.402-10.633-.195-4.488.445-6.761-1.535-6.824-5.95-.012-.991.453-3.374 1.402-7.147.313-.594.602-1.196.868-1.805.632-1.473 1.804-2.047 3.507-1.723 1.356.258 5.79.188 13.297-.203zM64.945 168.16c1.215.469 1.73 1.344 1.555 2.633a939.808 939.808 0 0 0-2.008 15.77 27.102 27.102 0 0 1-1.121 5.168c-.43 1.316-1.309 1.98-2.633 1.996l-16.086.16a.66.66 0 0 0-.648.55c-.297 1.915-.567 3.657-.813 5.231-.258 1.59-.95 2.852-2.074 3.782-.727.605-1.77.976-3.129 1.113a37.3 37.3 0 0 1-3.402.187c-.657.004-.754-.226-.293-.691.406-.414.75-.863 1.027-1.352.238-.41.402-.941.492-1.59 1.16-8.644 2.313-17.288 3.457-25.933.254-1.895.637-3.77 1.156-5.622.27-.945.895-1.476 1.868-1.597 5.804-.715 11.71-.848 17.719-.399.058.004.765.028 2.12.07 1.036.032 1.973.208 2.813.524zm-19.152 18.258 9.687.11c.95.015 1.485-.454 1.606-1.407l1.23-9.617a.452.452 0 0 0-.453-.504h-9.472c-.883 0-1.426.43-1.637 1.29-.809 3.28-1.27 6.5-1.379 9.663a.44.44 0 0 0 .418.465zM94.898 168.31c.805.54 1.16 1.313 1.07 2.309-.543 6.03-1.547 12.87-3 20.523-.254 1.328-.906 2.12-1.96 2.382-.012.004-.922.055-2.731.153-5.727.312-11.88.328-18.453.05-1.27-.058-2.137-.511-2.602-1.359-.281-.52-.367-1.379-.254-2.582.446-4.914.942-8.312 1.5-10.19.52-1.77 1.848-2.602 3.98-2.493 1.915.09 6.677-.02 14.29-.332.484-.016.851-.121 1.098-.305.484-.36.464-.777-.055-1.246a.965.965 0 0 0-.633-.219H74.761c-1.516 0-2.555-.18-3.125-.539-.941-.593-1.5-1.625-1.68-3.094-.171-1.398-.086-2.53.254-3.394a.531.531 0 0 1 .489-.336c7.59-.324 15.176-.258 22.766.188a2.898 2.898 0 0 1 1.433.484zm-8.121 16.824a.87.87 0 0 0-.867-.867l-10.164.02a.865.865 0 0 0-.867.867v.52c0 .48.39.862.87.866l10.165-.02c.48.005.863-.39.867-.866zM154.35 168.07c.7.078 1.23.672 1.223 1.379-.02 3.988-.485 7.789-1.399 11.402-.312 1.238-.781 2.094-1.402 2.57-.684.524-1.504.77-2.46.742-.884-.027-1.34-.039-1.376-.035-4.375.164-8.754.239-13.137.23-1.078 0-1.539.493-1.379 1.477.07.442.461.758.91.735 4.512-.22 8.868-.227 13.066-.02 1.235.059 2.282.309 3.145.75a.82.82 0 0 1 .426.504c.586 1.809.687 3.656.308 5.535a.43.43 0 0 1-.414.356c-9.293.398-16.984.406-23.062.031-1.726-.11-2.476-1.156-2.246-3.145.484-4.21.941-8.418 1.379-12.62.227-2.208.75-4.653 1.566-7.336.297-.977.797-1.72 1.493-2.227.5-.367 1.296-.594 2.398-.68 7.168-.535 14.156-.418 20.961.352zm-6.66 7.414a.487.487 0 0 0-.488-.492H136.28a.49.49 0 0 0-.489.492v.95a.49.49 0 0 0 .489.492h10.922a.487.487 0 0 0 .488-.493zM187.35 185.39a.87.87 0 0 0-.848-1.133c-5.277.082-10.219.031-14.824-.16-2.324-.094-3.316-1.262-2.976-3.5.449-2.941.86-5.887 1.234-8.844.145-1.101.426-1.914.844-2.433a4.35 4.35 0 0 1 1.45-1.164c.44-.22 1.026-.336 1.757-.356a606.94 606.94 0 0 1 22.133-.148c.465.007.82.394.8.855-.136 3.184-1.179 5.164-3.136 5.95-.523.21-2.441.363-5.754.46-3.394.094-6.785.137-10.18.13a.81.81 0 0 0-.61.23c-1.206 1.183-.784 1.754 1.262 1.714 4.465-.09 8.934-.058 13.398.098 1.09.043 1.887.238 2.387.594.817.582 1.156 1.437 1.016 2.562-.73 5.746-1.196 9.188-1.403 10.324-.218 1.211-.804 2.09-1.761 2.64-.586.333-1.54.52-2.871.567-6.04.215-12.078.2-18.121-.043-1.266-.05-2.137-.226-2.614-.523-.87-.55-1.234-1.492-1.09-2.82.098-.875.168-1.801.215-2.782a1.123 1.123 0 0 1 1.121-1.062h17.246c.247 0 .47-.078.637-.211.348-.285.574-.598.688-.945z" />
  <path fill="#ced740"
    d="M287.35 170.83c-.95 3.773-1.414 6.156-1.402 7.148.062 4.415 2.336 6.395 6.824 5.95 2.094-.207 5.637-.141 10.633.195a.528.528 0 0 1 .473.355c.425 1.34-.125 2.012-1.653 2.016-5.761.016-11.527.047-17.297.102-.218.003-.386.16-.386.355l.054 5.473c.008.468.38.875.883.96 2.34.403 4.71.598 7.121.587a223.348 223.348 0 0 0 15.586-.594c1.07-.078 1.73-.64 1.985-1.688a83.929 83.929 0 0 0 1.851-11.289l.324.028c.243 2.464.317 4.925.223 7.39-.078 2.063-.512 3.95-1.3 5.656-3.302 7.192-8.884 12.117-16.747 14.777a360.94 360.94 0 0 1-9.742 3.157c-4.27 1.308-7.484 2.437-9.64 3.394a100.973 100.973 0 0 0-12.087 6.399l-3.03-1.247c-.087-.035-.25-.187-.5-.453l-1.813-1.953c-.125-.133-.364-.191-.63-.148-1.194.183-1.417.515-.663 1 .199.129.191.222-.028.289-1.218.348-2.203.012-2.949-1.016-.43-.593-.71-.699-.847-.316-.055.156-.23.219-.348.129a9.257 9.257 0 0 1-2.703-3.578c-.801-1.887-1.301-3.012-1.492-3.375a22.997 22.997 0 0 1-1.61-3.961c-.082-.285-.152-.809-.203-1.574a4.183 4.183 0 0 0-.398-1.582c-.477-1.024-.75-1.735-.825-2.137-.37-1.992-.8-3.973-1.289-5.942-.043-.175.047-.386.223-.519.3-.227.36-.523.176-.887 1.46-.02 2.918-.094 4.375-.219 1.566-.136 2.722-.746 3.465-1.828.445-.644.746-1.8.902-3.476a348.615 348.615 0 0 1 1.96-16.73c.34-.18.688-.219 1.044-.125.23.058.449.066.656.027.664-.137.914.246.75 1.149l-.14 1.699a.332.332 0 0 0 .331.351l6.215-.078a.309.309 0 0 1 .313.352l-1.938 16.69c-.148 1.282.406 1.93 1.668 1.954 1.594.031 3.34.043 5.235.043.054-.004 1.464.05 4.226.16 1.98.086 3.946-.082 5.903-.496.222-.043.433-.16.582-.328 1.277-1.453 1.914-3.367 1.902-5.746a.609.609 0 0 0-.61-.602l-9.875-.05a.833.833 0 0 1-.812-.958l1.363-10.508a.582.582 0 0 1 .582-.511c2.223.007 4.496.039 6.817.09 1.34.027 2.367-.235 3.082-.79 1.277-.992 1.98-2.406 2.105-4.25.367-.066.614-.246.75-.539.09-.195.274-.3.442-.25.906.278 1.55.903 1.933 1.867z" />
  <path fill="#becf42"
    d="m310.95 174.65 1.05 3.852-.292.175c-.23-.543-.531-.89-.903-1.05-1.593-.68-3.402-.973-5.433-.875-3.887.187-7.777.289-11.676.308-.887.004-1.063-.433-.524-1.316.524-.856 1.274-1.254 2.254-1.196.871.051 1.328.075 1.371.075 4.72-.196 9.438-.188 14.152.027z" />
  <path fill="#4e6746" fill-opacity=".98" d="M312 178.5c.387.566.504 1.207.352 1.926l-.325-.028-.32-1.722z" />
  <path fill="#b2cc44"
    d="M244.12 193.93c.184.363.125.66-.176.887-.176.133-.265.343-.222.52.488 1.968.918 3.948 1.289 5.94.074.403.347 1.114.824 2.137.234.493.367 1.02.398 1.582.051.766.121 1.29.203 1.575a22.991 22.991 0 0 0 1.61 3.96c.191.364.691 1.489 1.492 3.375a9.258 9.258 0 0 0 2.703 3.579c.117.09.293.027.348-.13.137-.382.418-.277.847.317.747 1.027 1.731 1.363 2.95 1.016.218-.067.226-.16.027-.29-.754-.484-.531-.816.664-1 .266-.042.504.016.629.149l1.812 1.953c.25.266.415.418.5.453l3.032 1.246-6.282 5.16a.57.57 0 0 1-.593.09c-1.465-.629-3.281-1.84-5.446-3.632-6.843-5.657-11.539-12.742-14.086-21.258a15.62 15.62 0 0 1-.609-5.72c.004-.046.07-.277.191-.687.094-.3.032-.605-.183-.902a45.737 45.737 0 0 1 8.078-.32z" />
  <path fill="#d4d93d"
    d="M310.25 205.27c.742 1.41.926 2.813.555 4.203-.364 1.348-.903 2.762-1.618 4.246-.605 1.258-1.406 2.531-2.402 3.824a71.043 71.043 0 0 1-4.515 5.286c-.247.265-.422.433-.524.504l-6.824 4.785a.17.17 0 0 1-.094.035 16.727 16.727 0 0 0-3.414.906c-1.86.707-2.957 1.106-3.297 1.188a24.606 24.606 0 0 1-4.605.66c-2.426.117-2.723.66-.883 1.636-6.633.762-13.332-.156-20.105-2.75a.648.648 0 0 1-.188-1.093c2.262-1.922 4.793-3.586 7.59-4.989 1.348-.68 4.102-1.886 8.258-3.62a132.532 132.532 0 0 1 14.02-4.942 33.267 33.267 0 0 0 4.195-1.512 140.99 140.99 0 0 1 4.117-1.73c1.301-.524 2.481-1.114 3.54-1.778a272.003 272.003 0 0 0 3.359-2.136 10.284 10.284 0 0 0 2.836-2.723z" />
</svg>