<?xml version="1.0" encoding="utf-8"?>
<svg xmlns="http://www.w3.org/2000/svg" xmlns:xlink="http://www.w3.org/1999/xlink" width="304.5" height="150.5" viewBox="31.5 91 304.5 150.5" version="1.1">
  <g id="surface1">
    <path style="fill:none;stroke-width:2;stroke-linecap:butt;stroke-linejoin:miter;stroke:rgb(77.647059%,84.705882%,52.156863%);stroke-opacity:1;stroke-miterlimit:4;" d="M 266.037946 141.752232 C 265.345982 140.898438 264.977679 139.916295 264.927455 138.811384 C 264.921875 138.470982 264.799107 138.158482 264.609375 137.940848 C 262.823661 135.982143 260.77567 134.335938 258.459821 133.002232 " transform="matrix(0.7,0,0,0.7,0,0)" />
    <path style="fill:none;stroke-width:2;stroke-linecap:butt;stroke-linejoin:miter;stroke:rgb(72.156863%,80.784314%,25.098039%);stroke-opacity:1;stroke-miterlimit:4;" d="M 258.459821 133.002232 L 258.208705 132.248884 " transform="matrix(0.7,0,0,0.7,0,0)" />
    <path style="fill:none;stroke-width:2;stroke-linecap:butt;stroke-linejoin:miter;stroke:rgb(85.098039%,88.235294%,50.980392%);stroke-opacity:1;stroke-miterlimit:4;" d="M 258.459821 133.002232 C 257.170759 133.225446 256.997768 133.660714 257.940848 134.308036 C 260.524554 136.08817 262.137277 137.310268 262.779018 137.96875 C 264.252232 139.492188 264.559152 141.065848 263.688616 142.689732 C 262.751116 144.436384 261.473214 145.16183 259.860491 144.871652 C 258.945312 144.704241 257.890625 144.017857 256.702009 142.81808 C 255.591518 141.71317 254.486607 140.608259 253.381696 139.497768 C 253.376116 139.497768 253.197545 139.263393 252.851562 138.789062 C 252.578125 138.420759 252.220982 138.409598 251.791295 138.75 " transform="matrix(0.7,0,0,0.7,0,0)" />
    <path style="fill:none;stroke-width:2;stroke-linecap:butt;stroke-linejoin:miter;stroke:rgb(84.705882%,88.235294%,64.313725%);stroke-opacity:1;stroke-miterlimit:4;" d="M 261.752232 146.037946 L 258.537946 146.25 " transform="matrix(0.7,0,0,0.7,0,0)" />
    <path style="fill:none;stroke-width:2;stroke-linecap:butt;stroke-linejoin:miter;stroke:rgb(85.098039%,88.235294%,50.980392%);stroke-opacity:1;stroke-miterlimit:4;" d="M 258.537946 146.25 L 251.462054 139.497768 " transform="matrix(0.7,0,0,0.7,0,0)" />
    <path style="fill:none;stroke-width:2;stroke-linecap:butt;stroke-linejoin:miter;stroke:rgb(79.215686%,84.313725%,37.254902%);stroke-opacity:1;stroke-miterlimit:4;" d="M 258.537946 146.25 L 260.039062 146.752232 " transform="matrix(0.7,0,0,0.7,0,0)" />
    <path style="fill:none;stroke-width:2;stroke-linecap:butt;stroke-linejoin:miter;stroke:rgb(40%,42.352941%,12.156863%);stroke-opacity:1;stroke-miterlimit:4;" d="M 259.252232 147.042411 C 255.597098 146.914062 253.002232 145.234375 251.462054 141.997768 " transform="matrix(0.7,0,0,0.7,0,0)" />
    <path style="fill:none;stroke-width:2;stroke-linecap:butt;stroke-linejoin:miter;stroke:rgb(32.156863%,38.431373%,13.333333%);stroke-opacity:1;stroke-miterlimit:4;" d="M 221.501116 200.792411 C 220.859375 198.470982 219.542411 196.707589 217.539062 195.502232 " transform="matrix(0.7,0,0,0.7,0,0)" />
    <path style="fill:none;stroke-width:2;stroke-linecap:butt;stroke-linejoin:miter;stroke:rgb(42.745098%,45.098039%,31.764706%);stroke-opacity:1;stroke-miterlimit:4;" d="M 217.539062 195.502232 L 216.501116 194.709821 " transform="matrix(0.7,0,0,0.7,0,0)" />
    <path style="fill:none;stroke-width:2;stroke-linecap:butt;stroke-linejoin:miter;stroke:rgb(40%,42.352941%,12.156863%);stroke-opacity:1;stroke-miterlimit:4;" d="M 216.501116 194.709821 L 214.748884 193.962054 " transform="matrix(0.7,0,0,0.7,0,0)" />
    <path style="fill:none;stroke-width:2;stroke-linecap:butt;stroke-linejoin:miter;stroke:rgb(74.901961%,83.529412%,44.705882%);stroke-opacity:1;stroke-miterlimit:4;" d="M 217.539062 195.502232 C 217.606027 197.427455 218.074777 199.241071 218.950893 200.9375 C 219.319196 201.657366 219.475446 202.282366 219.430804 202.8125 C 219.375 203.364955 219.252232 204.029018 219.0625 204.810268 C 218.878348 205.558036 219.263393 205.78683 220.212054 205.502232 " transform="matrix(0.7,0,0,0.7,0,0)" />
    <path style="fill:none;stroke-width:2;stroke-linecap:butt;stroke-linejoin:miter;stroke:rgb(83.137255%,87.45098%,44.313725%);stroke-opacity:1;stroke-miterlimit:4;" d="M 209.497768 207.957589 C 209.441964 206.573661 209.051339 205.284598 208.331473 204.101562 C 208.197545 203.878348 208.102679 203.577009 208.041295 203.191964 L 207.209821 198.002232 " transform="matrix(0.7,0,0,0.7,0,0)" />
    <path style="fill:none;stroke-width:2;stroke-linecap:butt;stroke-linejoin:miter;stroke:rgb(82.745098%,87.45098%,43.529412%);stroke-opacity:1;stroke-miterlimit:4;" d="M 216.501116 194.709821 C 215.675223 194.570312 215.373884 194.804688 215.608259 195.418527 C 216.796875 198.521205 217.578125 201.707589 217.952009 204.988839 C 217.979911 205.31808 217.879464 205.641741 217.678571 205.881696 C 215.959821 207.81808 214.21317 208.292411 212.438616 207.287946 C 211.199777 206.590402 210.368304 205.256696 209.949777 203.292411 C 209.626116 201.774554 209.36942 200.117188 209.190848 198.309152 C 209.095982 197.410714 208.616071 196.958705 207.751116 196.958705 " transform="matrix(0.7,0,0,0.7,0,0)" />
    <path style="fill:none;stroke-width:2;stroke-linecap:butt;stroke-linejoin:miter;stroke:rgb(40%,42.352941%,12.156863%);stroke-opacity:1;stroke-miterlimit:4;" d="M 212.248884 193.962054 C 210.541295 194.659598 209.045759 195.658482 207.751116 196.958705 " transform="matrix(0.7,0,0,0.7,0,0)" />
    <path style="fill:none;stroke-width:2;stroke-linecap:butt;stroke-linejoin:miter;stroke:rgb(42.745098%,45.098039%,31.764706%);stroke-opacity:1;stroke-miterlimit:4;" d="M 207.751116 196.958705 C 207.449777 197.237723 207.271205 197.589286 207.209821 198.002232 " transform="matrix(0.7,0,0,0.7,0,0)" />
    <path style="fill:none;stroke-width:2;stroke-linecap:butt;stroke-linejoin:miter;stroke:rgb(40.392157%,42.352941%,12.941176%);stroke-opacity:1;stroke-miterlimit:4;" d="M 207.209821 198.002232 C 206.361607 199.36942 205.948661 200.864955 205.959821 202.5 " transform="matrix(0.7,0,0,0.7,0,0)" />
    <path style="fill:none;stroke-width:2;stroke-linecap:butt;stroke-linejoin:miter;stroke:rgb(32.156863%,38.431373%,13.333333%);stroke-opacity:1;stroke-miterlimit:4;" d="M 190.708705 175.998884 L 190.747768 175.541295 " transform="matrix(0.7,0,0,0.7,0,0)" />
    <path style="fill:none;stroke-width:2;stroke-linecap:butt;stroke-linejoin:miter;stroke:rgb(61.176471%,66.666667%,52.941176%);stroke-opacity:0.992157;stroke-miterlimit:4;" d="M 196.997768 169.291295 C 196.914062 169.748884 197.008929 170.15067 197.287946 170.502232 " transform="matrix(0.7,0,0,0.7,0,0)" />
    <path style="fill:none;stroke-width:2;stroke-linecap:butt;stroke-linejoin:miter;stroke:rgb(45.490196%,46.27451%,38.823529%);stroke-opacity:1;stroke-miterlimit:4;" d="M 197.287946 170.502232 C 196.417411 173.532366 194.402902 175.184152 191.25 175.457589 " transform="matrix(0.7,0,0,0.7,0,0)" />
    <path style="fill:none;stroke-width:2;stroke-linecap:butt;stroke-linejoin:miter;stroke:rgb(85.098039%,88.235294%,50.980392%);stroke-opacity:1;stroke-miterlimit:4;" d="M 191.25 175.457589 C 189.21875 175.16183 187.695312 174.112723 186.690848 172.310268 C 186.261161 171.55692 185.184152 170.039062 183.459821 167.751116 " transform="matrix(0.7,0,0,0.7,0,0)" />
    <path style="fill:none;stroke-width:2;stroke-linecap:butt;stroke-linejoin:miter;stroke:rgb(15.294118%,20%,13.72549%);stroke-opacity:0.992157;stroke-miterlimit:4;" d="M 198.292411 170 C 198.203125 170.513393 197.868304 170.680804 197.287946 170.502232 " transform="matrix(0.7,0,0,0.7,0,0)" />
    <path style="fill:none;stroke-width:2;stroke-linecap:butt;stroke-linejoin:miter;stroke:rgb(40%,42.352941%,12.156863%);stroke-opacity:1;stroke-miterlimit:4;" d="M 191.25 175.457589 L 190.747768 175.541295 " transform="matrix(0.7,0,0,0.7,0,0)" />
    <path style="fill:none;stroke-width:2;stroke-linecap:butt;stroke-linejoin:miter;stroke:rgb(72.156863%,80.784314%,25.098039%);stroke-opacity:1;stroke-miterlimit:4;" d="M 190.747768 175.541295 L 187.751116 175.541295 " transform="matrix(0.7,0,0,0.7,0,0)" />
    <path style="fill:none;stroke-width:2;stroke-linecap:butt;stroke-linejoin:miter;stroke:rgb(40%,42.352941%,12.156863%);stroke-opacity:1;stroke-miterlimit:4;" d="M 187.751116 175.541295 C 184.799107 174.319196 182.952009 172.137277 182.209821 169.001116 " transform="matrix(0.7,0,0,0.7,0,0)" />
    <path style="fill:none;stroke-width:2;stroke-linecap:butt;stroke-linejoin:miter;stroke:rgb(85.098039%,88.235294%,50.980392%);stroke-opacity:1;stroke-miterlimit:4;" d="M 189.291295 161.752232 C 189.319196 162.405134 189.654018 162.96875 190.3125 163.4375 C 191.601562 164.38058 192.862723 165.580357 194.090402 167.042411 C 194.676339 167.739955 195.044643 168.398438 195.189732 169.012277 C 195.390625 169.83817 195.351562 170.61942 195.078125 171.361607 C 194.698661 172.393973 193.950893 173.11942 192.840402 173.537946 C 190.602679 174.391741 188.487723 173.236607 186.512277 170.072545 C 185.976562 169.229911 185.524554 168.348214 185.15067 167.421875 C 185.022321 167.109375 184.486607 167.131696 183.537946 167.5 " transform="matrix(0.7,0,0,0.7,0,0)" />
    <path style="fill:none;stroke-width:2;stroke-linecap:butt;stroke-linejoin:miter;stroke:rgb(47.843137%,58.823529%,27.058824%);stroke-opacity:0.992157;stroke-miterlimit:4;" d="M 197.957589 169.252232 L 196.997768 169.291295 " transform="matrix(0.7,0,0,0.7,0,0)" />
    <path style="fill:none;stroke-width:2;stroke-linecap:butt;stroke-linejoin:miter;stroke:rgb(77.647059%,84.705882%,52.156863%);stroke-opacity:1;stroke-miterlimit:4;" d="M 196.997768 169.291295 C 195.228795 166.277902 192.97433 163.666295 190.251116 161.462054 " transform="matrix(0.7,0,0,0.7,0,0)" />
    <path style="fill:none;stroke-width:2;stroke-linecap:butt;stroke-linejoin:miter;stroke:rgb(32.156863%,38.431373%,13.333333%);stroke-opacity:1;stroke-miterlimit:4;" d="M 187.751116 175.541295 L 189.001116 176.037946 " transform="matrix(0.7,0,0,0.7,0,0)" />
    <path style="fill:none;stroke-width:2;stroke-linecap:butt;stroke-linejoin:miter;stroke:rgb(42.745098%,45.098039%,31.764706%);stroke-opacity:1;stroke-miterlimit:4;" d="M 147.790179 229.001116 C 148.007812 227.829241 147.985491 226.657366 147.712054 225.502232 " transform="matrix(0.7,0,0,0.7,0,0)" />
    <path style="fill:none;stroke-width:2;stroke-linecap:butt;stroke-linejoin:miter;stroke:rgb(32.156863%,38.431373%,13.333333%);stroke-opacity:1;stroke-miterlimit:4;" d="M 147.712054 225.502232 C 147.064732 222.901786 145.407366 221.222098 142.751116 220.457589 " transform="matrix(0.7,0,0,0.7,0,0)" />
    <path style="fill:none;stroke-width:2;stroke-linecap:butt;stroke-linejoin:miter;stroke:rgb(74.901961%,83.529412%,44.705882%);stroke-opacity:1;stroke-miterlimit:4;" d="M 147.712054 225.502232 C 147.008929 225.625 146.495536 225.457589 146.160714 225 C 145.909598 224.648438 145.669643 224.397321 145.491071 224.330357 L 138.498884 221.540179 " transform="matrix(0.7,0,0,0.7,0,0)" />
    <path style="fill:none;stroke-width:2;stroke-linecap:butt;stroke-linejoin:miter;stroke:rgb(71.764706%,80.784314%,38.431373%);stroke-opacity:1;stroke-miterlimit:4;" d="M 138.498884 221.540179 L 137.712054 220.998884 " transform="matrix(0.7,0,0,0.7,0,0)" />
    <path style="fill:none;stroke-width:2;stroke-linecap:butt;stroke-linejoin:miter;stroke:rgb(82.745098%,87.45098%,43.529412%);stroke-opacity:1;stroke-miterlimit:4;" d="M 147.248884 231.037946 L 146.897321 230.998884 C 146.707589 230.982143 146.56808 230.797991 146.579241 230.591518 C 146.735491 227.271205 145.267857 225.178571 142.1875 224.308036 C 140.189732 223.75 138.694196 223.147321 137.712054 222.5 " transform="matrix(0.7,0,0,0.7,0,0)" />
    <path style="fill:none;stroke-width:2;stroke-linecap:butt;stroke-linejoin:miter;stroke:rgb(32.156863%,38.431373%,13.333333%);stroke-opacity:1;stroke-miterlimit:4;" d="M 138.498884 220.457589 L 137.712054 220.998884 " transform="matrix(0.7,0,0,0.7,0,0)" />
    <path style="fill:none;stroke-width:2;stroke-linecap:butt;stroke-linejoin:miter;stroke:rgb(39.607843%,42.352941%,25.490196%);stroke-opacity:1;stroke-miterlimit:4;" d="M 137.712054 220.998884 L 136.462054 221.752232 " transform="matrix(0.7,0,0,0.7,0,0)" />
    <path style="fill:none;stroke-width:2;stroke-linecap:butt;stroke-linejoin:miter;stroke:rgb(40%,42.352941%,12.156863%);stroke-opacity:1;stroke-miterlimit:4;" d="M 136.462054 221.752232 C 134.118304 223.448661 132.96875 225.770089 133.002232 228.710938 " transform="matrix(0.7,0,0,0.7,0,0)" />
    <path style="fill:none;stroke-width:2;stroke-linecap:butt;stroke-linejoin:miter;stroke:rgb(82.352941%,87.45098%,56.862745%);stroke-opacity:1;stroke-miterlimit:4;" d="M 138.498884 221.540179 C 138.046875 221.735491 137.784598 222.053571 137.712054 222.5 " transform="matrix(0.7,0,0,0.7,0,0)" />
    <path style="fill:none;stroke-width:2;stroke-linecap:butt;stroke-linejoin:miter;stroke:rgb(79.215686%,84.313725%,37.254902%);stroke-opacity:1;stroke-miterlimit:4;" d="M 137.712054 222.5 L 136.462054 221.752232 " transform="matrix(0.7,0,0,0.7,0,0)" />
    <path style="fill:none;stroke-width:2;stroke-linecap:butt;stroke-linejoin:miter;stroke:rgb(85.098039%,88.235294%,50.980392%);stroke-opacity:1;stroke-miterlimit:4;" d="M 146.462054 231.501116 L 146.127232 231.450893 C 145.881696 231.41183 145.658482 231.439732 145.552455 231.529018 C 143.710938 232.985491 141.752232 233.058036 139.68192 231.757812 C 138.560268 231.060268 136.897321 230.078125 134.6875 228.811384 C 134.101562 228.476562 133.610491 228.454241 133.208705 228.75 " transform="matrix(0.7,0,0,0.7,0,0)" />
    <path style="fill:none;stroke-width:2;stroke-linecap:butt;stroke-linejoin:miter;stroke:rgb(40.392157%,42.352941%,12.941176%);stroke-opacity:1;stroke-miterlimit:4;" d="M 113.537946 189.497768 C 112.907366 192.527902 111.227679 194.787946 108.498884 196.289062 " transform="matrix(0.7,0,0,0.7,0,0)" />
    <path style="fill:none;stroke-width:2;stroke-linecap:butt;stroke-linejoin:miter;stroke:rgb(40.392157%,42.352941%,12.941176%);stroke-opacity:1;stroke-miterlimit:4;" d="M 104.291295 196.752232 C 101.456473 195.46317 99.514509 193.381696 98.459821 190.502232 " transform="matrix(0.7,0,0,0.7,0,0)" />
    <path style="fill:none;stroke-width:2;stroke-linecap:butt;stroke-linejoin:miter;stroke:rgb(85.882353%,88.627451%,51.764706%);stroke-opacity:1;stroke-miterlimit:4;" d="M 143.498884 234.787946 C 141.261161 234.207589 139.944196 233.761161 139.559152 233.4375 C 137.829241 231.964286 135.904018 230.820312 133.789062 230 " transform="matrix(0.7,0,0,0.7,0,0)" />
    <path style="fill:none;stroke-width:2;stroke-linecap:butt;stroke-linejoin:miter;stroke:rgb(40.392157%,42.352941%,12.941176%);stroke-opacity:1;stroke-miterlimit:4;" d="M 72.248884 231.791295 L 71.540179 231.752232 " transform="matrix(0.7,0,0,0.7,0,0)" />
    <path style="fill:none;stroke-width:2;stroke-linecap:butt;stroke-linejoin:miter;stroke:rgb(15.294118%,20%,13.72549%);stroke-opacity:0.992157;stroke-miterlimit:4;" d="M 71.501116 228.041295 C 71.372768 226.054688 70.373884 224.69308 68.498884 223.962054 " transform="matrix(0.7,0,0,0.7,0,0)" />
    <path style="fill:none;stroke-width:2;stroke-linecap:butt;stroke-linejoin:miter;stroke:rgb(40%,42.352941%,12.156863%);stroke-opacity:1;stroke-miterlimit:4;" d="M 68.498884 223.962054 C 68.225446 223.638393 67.879464 223.404018 67.460938 223.247768 " transform="matrix(0.7,0,0,0.7,0,0)" />
    <path style="fill:none;stroke-width:2;stroke-linecap:butt;stroke-linejoin:miter;stroke:rgb(55.686275%,62.745098%,25.882353%);stroke-opacity:0.992157;stroke-miterlimit:4;" d="M 68.498884 223.962054 L 67.751116 224.709821 " transform="matrix(0.7,0,0,0.7,0,0)" />
    <path style="fill:none;stroke-width:2;stroke-linecap:butt;stroke-linejoin:miter;stroke:rgb(40%,42.352941%,12.156863%);stroke-opacity:1;stroke-miterlimit:4;" d="M 70 232.460938 L 68.002232 233.789062 " transform="matrix(0.7,0,0,0.7,0,0)" />
    <path style="fill:none;stroke-width:2;stroke-linecap:butt;stroke-linejoin:miter;stroke:rgb(40.392157%,42.352941%,12.941176%);stroke-opacity:1;stroke-miterlimit:4;" d="M 68.041295 234.001116 C 69.029018 233.861607 69.765625 233.376116 70.251116 232.539062 " transform="matrix(0.7,0,0,0.7,0,0)" />
    <path style="fill:none;stroke-width:2;stroke-linecap:butt;stroke-linejoin:miter;stroke:rgb(73.72549%,81.176471%,25.490196%);stroke-opacity:1;stroke-miterlimit:4;" d="M 403.75 332.209821 C 401.121652 330.814732 401.545759 330.039062 405.011161 329.871652 C 407.243304 329.765625 409.436384 329.447545 411.590402 328.928571 C 412.075893 328.811384 413.643973 328.242188 416.300223 327.232143 C 417.873884 326.629464 419.497768 326.199777 421.177455 325.9375 C 421.233259 325.93192 421.277902 325.915179 421.311384 325.887277 L 431.060268 319.051339 C 431.205357 318.950893 431.456473 318.710938 431.808036 318.331473 C 434.129464 315.864955 436.277902 313.348214 438.258929 310.78125 C 439.68192 308.934152 440.825893 307.114955 441.690848 305.31808 C 442.712054 303.197545 443.482143 301.177455 444.001116 299.252232 C 444.53125 297.265625 444.268973 295.262277 443.208705 293.247768 " transform="matrix(0.7,0,0,0.7,0,0)" />
    <path style="fill:none;stroke-width:2;stroke-linecap:butt;stroke-linejoin:miter;stroke:rgb(32.156863%,38.431373%,13.333333%);stroke-opacity:1;stroke-miterlimit:4;" d="M 448.75 240.457589 L 447.790179 238.75 " transform="matrix(0.7,0,0,0.7,0,0)" />
    <path style="fill:none;stroke-width:2;stroke-linecap:butt;stroke-linejoin:miter;stroke:rgb(66.666667%,78.039216%,29.411765%);stroke-opacity:1;stroke-miterlimit:4;" d="M 408.75 220.792411 C 407.578125 220.47433 406.651786 219.804688 405.982143 218.777902 C 404.933036 217.1875 403.504464 216.378348 401.702009 216.361607 C 399.804688 216.339286 398.839286 216.328125 398.800223 216.322545 C 397.059152 216.065848 395.357143 215.669643 393.688616 215.128348 C 392.03683 214.598214 390.485491 214.352679 389.029018 214.397321 C 386.752232 214.464286 384.341518 214.497768 381.802455 214.497768 C 381.462054 214.497768 381.121652 214.53125 380.78125 214.592634 C 377.924107 215.111607 375.412946 215.262277 373.242188 215.050223 C 372.97433 215.027902 372.65067 215.078125 372.282366 215.189732 L 369.051339 216.199777 C 368.75 216.300223 368.487723 216.501116 368.342634 216.768973 C 367.784598 217.712054 367.075893 217.840402 366.210938 217.159598 C 365.647321 216.729911 364.860491 216.768973 364.358259 217.271205 C 363.772321 217.845982 363.236607 218.018973 362.751116 217.790179 " transform="matrix(0.7,0,0,0.7,0,0)" />
    <path style="fill:none;stroke-width:2;stroke-linecap:butt;stroke-linejoin:miter;stroke:rgb(34.509804%,39.607843%,16.078431%);stroke-opacity:1;stroke-miterlimit:4;" d="M 390.959821 226.25 C 390.652902 226.082589 390.435268 225.848214 390.3125 225.552455 C 390.167411 225.217634 389.949777 224.988839 389.709821 224.921875 C 387.209821 224.22433 384.659598 223.934152 382.059152 224.040179 C 381.768973 224.051339 381.529018 224.257812 381.478795 224.547991 L 379.787946 234.001116 " transform="matrix(0.7,0,0,0.7,0,0)" />
    <path style="fill:none;stroke-width:2;stroke-linecap:butt;stroke-linejoin:miter;stroke:rgb(73.72549%,81.960784%,41.568627%);stroke-opacity:1;stroke-miterlimit:4;" d="M 379.787946 234.001116 C 379.782366 233.376116 379.52567 233.102679 379.012277 233.180804 C 378.75558 233.219866 378.504464 233.387277 378.258929 233.677455 C 377.131696 235 375.881696 236.188616 374.508929 237.248884 C 374.447545 237.299107 374.034598 237.522321 373.258929 237.918527 C 372.594866 238.258929 372.271205 238.872768 372.287946 239.748884 " transform="matrix(0.7,0,0,0.7,0,0)" />
    <path style="fill:none;stroke-width:2;stroke-linecap:butt;stroke-linejoin:miter;stroke:rgb(34.509804%,39.607843%,16.078431%);stroke-opacity:1;stroke-miterlimit:4;" d="M 372.287946 239.748884 C 369.202009 240.965402 367.622768 243.297991 367.539062 246.752232 " transform="matrix(0.7,0,0,0.7,0,0)" />
    <path style="fill:none;stroke-width:2;stroke-linecap:butt;stroke-linejoin:miter;stroke:rgb(74.901961%,81.960784%,29.019608%);stroke-opacity:1;stroke-miterlimit:4;" d="M 367.539062 246.752232 C 367.773438 245.46317 367.416295 244.916295 366.467634 245.111607 C 366.171875 245.167411 365.859375 245.15625 365.530134 245.072545 C 365.022321 244.938616 364.52567 244.99442 364.040179 245.251116 " transform="matrix(0.7,0,0,0.7,0,0)" />
    <path style="fill:none;stroke-width:2;stroke-linecap:butt;stroke-linejoin:miter;stroke:rgb(34.509804%,39.607843%,16.078431%);stroke-opacity:1;stroke-miterlimit:4;" d="M 364.040179 245.251116 C 364.960938 241.512277 363.777902 239.592634 360.502232 239.497768 C 355.479911 239.352679 350.46875 239.101562 345.457589 238.75 " transform="matrix(0.7,0,0,0.7,0,0)" />
    <path style="fill:none;stroke-width:2;stroke-linecap:butt;stroke-linejoin:miter;stroke:rgb(37.254902%,40.784314%,12.941176%);stroke-opacity:1;stroke-miterlimit:4;" d="M 444.207589 249.497768 C 437.472098 249.190848 430.731027 249.179688 423.989955 249.458705 C 423.928571 249.458705 423.27567 249.425223 422.03125 249.352679 C 420.63058 249.268973 419.559152 249.83817 418.811384 251.060268 C 418.041295 252.321429 418.292411 252.946429 419.559152 252.940848 C 425.128348 252.912946 430.686384 252.767857 436.238839 252.5 C 439.140625 252.360491 441.72433 252.779018 444.001116 253.75 C 444.53125 253.978795 444.960938 254.475446 445.290179 255.251116 " transform="matrix(0.7,0,0,0.7,0,0)" />
    <path style="fill:none;stroke-width:2;stroke-linecap:butt;stroke-linejoin:miter;stroke:rgb(15.294118%,20%,13.72549%);stroke-opacity:0.992157;stroke-miterlimit:4;" d="M 445.290179 255.251116 L 445.747768 257.712054 " transform="matrix(0.7,0,0,0.7,0,0)" />
    <path style="fill:none;stroke-width:2;stroke-linecap:butt;stroke-linejoin:miter;stroke:rgb(40.392157%,42.352941%,12.941176%);stroke-opacity:1;stroke-miterlimit:4;" d="M 445.747768 257.712054 C 445.212054 263.292411 444.324777 268.666295 443.102679 273.839286 C 442.739955 275.334821 441.796875 276.138393 440.267857 276.25 C 432.851562 276.791295 425.424107 277.075893 418.002232 277.098214 C 414.559152 277.114955 411.171875 276.835938 407.829241 276.261161 C 407.109375 276.138393 406.579241 275.558036 406.56808 274.888393 L 406.489955 267.070312 C 406.489955 266.791295 406.729911 266.56808 407.042411 266.5625 C 415.284598 266.484375 423.521205 266.439732 431.752232 266.417411 C 433.934152 266.41183 434.720982 265.452009 434.112723 263.537946 C 434.017857 263.247768 433.75 263.052455 433.4375 263.030134 C 426.300223 262.550223 421.238839 262.455357 418.247768 262.751116 C 411.835938 263.387277 408.58817 260.558036 408.498884 254.252232 C 408.482143 252.834821 409.146205 249.430804 410.502232 244.040179 " transform="matrix(0.7,0,0,0.7,0,0)" />
    <path style="fill:none;stroke-width:2;stroke-linecap:butt;stroke-linejoin:miter;stroke:rgb(40.392157%,42.352941%,12.941176%);stroke-opacity:1;stroke-miterlimit:4;" d="M 364.040179 245.251116 C 362.912946 253.197545 361.981027 261.160714 361.238839 269.151786 C 361.015625 271.545759 360.585938 273.197545 359.949777 274.118304 C 358.889509 275.664062 357.237723 276.534598 355 276.729911 C 352.918527 276.908482 350.837054 277.014509 348.75 277.042411 " transform="matrix(0.7,0,0,0.7,0,0)" />
    <path style="fill:none;stroke-width:2;stroke-linecap:butt;stroke-linejoin:miter;stroke:rgb(35.294118%,40%,13.333333%);stroke-opacity:1;stroke-miterlimit:4;" d="M 348.75 277.042411 C 344.882812 276.852679 341.037946 277.008929 337.209821 277.5 " transform="matrix(0.7,0,0,0.7,0,0)" />
    <path style="fill:none;stroke-width:2;stroke-linecap:butt;stroke-linejoin:miter;stroke:rgb(15.294118%,20%,13.72549%);stroke-opacity:0.992157;stroke-miterlimit:4;" d="M 390.959821 230.998884 C 390.128348 231.607143 389.988839 232.354911 390.541295 233.247768 " transform="matrix(0.7,0,0,0.7,0,0)" />
    <path style="fill:none;stroke-width:2;stroke-linecap:butt;stroke-linejoin:miter;stroke:rgb(36.862745%,40.784314%,15.686275%);stroke-opacity:1;stroke-miterlimit:4;" d="M 390.541295 233.247768 L 389.732143 238.320312 C 389.637277 238.939732 390.078125 239.497768 390.669643 239.497768 C 394.676339 239.497768 398.660714 239.497768 402.628348 239.497768 C 402.695312 239.497768 403.270089 239.458705 404.352679 239.36942 C 406.272321 239.22433 406.835938 240.267857 406.037946 242.5 " transform="matrix(0.7,0,0,0.7,0,0)" />
    <path style="fill:none;stroke-width:2;stroke-linecap:butt;stroke-linejoin:miter;stroke:rgb(40.392157%,42.352941%,12.941176%);stroke-opacity:1;stroke-miterlimit:4;" d="M 406.037946 242.5 C 405.859375 245.133929 404.854911 247.154018 403.030134 248.571429 C 402.008929 249.363839 400.541295 249.737723 398.627232 249.698661 C 395.3125 249.626116 392.064732 249.581473 388.889509 249.570312 C 388.470982 249.559152 388.11942 249.877232 388.058036 250.301339 L 386.110491 265.3125 C 386.010045 266.037946 386.5625 266.679688 387.271205 266.679688 L 401.378348 266.752232 C 401.858259 266.752232 402.237723 267.131696 402.248884 267.611607 C 402.265625 271.010045 401.356027 273.74442 399.53125 275.820312 C 399.319196 276.060268 399.017857 276.227679 398.699777 276.289062 C 395.904018 276.88058 393.097098 277.120536 390.267857 276.997768 C 386.322545 276.841518 384.308036 276.763393 384.229911 276.768973 C 381.523438 276.768973 379.029018 276.752232 376.752232 276.707589 C 374.949777 276.674107 374.157366 275.747768 374.36942 273.917411 L 377.137277 250.072545 C 377.170759 249.799107 376.958705 249.559152 376.690848 249.570312 L 367.8125 249.68192 C 367.539062 249.6875 367.321429 249.447545 367.33817 249.179688 L 367.539062 246.752232 " transform="matrix(0.7,0,0,0.7,0,0)" />
    <path style="fill:none;stroke-width:2;stroke-linecap:butt;stroke-linejoin:miter;stroke:rgb(39.607843%,42.352941%,25.490196%);stroke-opacity:1;stroke-miterlimit:4;" d="M 372.287946 239.748884 L 378.052455 239.497768 C 378.537946 239.481027 378.950893 239.179688 379.012277 238.777902 L 379.787946 234.001116 " transform="matrix(0.7,0,0,0.7,0,0)" />
    <path style="fill:none;stroke-width:2;stroke-linecap:butt;stroke-linejoin:miter;stroke:rgb(56.078431%,62.745098%,26.666667%);stroke-opacity:0.992157;stroke-miterlimit:4;" d="M 445.747768 257.712054 L 446.210938 257.751116 " transform="matrix(0.7,0,0,0.7,0,0)" />
    <path style="fill:none;stroke-width:2;stroke-linecap:butt;stroke-linejoin:miter;stroke:rgb(75.686275%,82.352941%,26.27451%);stroke-opacity:1;stroke-miterlimit:4;" d="M 375.792411 315.998884 L 371.462054 314.21875 C 371.339286 314.168527 371.104911 313.950893 370.747768 313.571429 L 368.158482 310.78125 C 367.979911 310.591518 367.639509 310.507812 367.260045 310.569196 C 365.552455 310.831473 365.234375 311.305804 366.311384 311.997768 C 366.595982 312.18192 366.584821 312.315848 366.272321 312.410714 C 364.53125 312.907366 363.125 312.427455 362.059152 310.959821 C 361.445312 310.111607 361.043527 309.960938 360.848214 310.507812 C 360.770089 310.731027 360.518973 310.820312 360.351562 310.691964 C 358.621652 309.274554 357.33817 307.572545 356.489955 305.580357 C 355.345982 302.885045 354.631696 301.277902 354.358259 300.758929 C 353.420759 298.950893 352.65067 297.064732 352.059152 295.100446 C 351.941964 294.69308 351.841518 293.945312 351.768973 292.851562 C 351.72433 292.047991 351.534598 291.294643 351.199777 290.591518 C 350.518973 289.129464 350.128348 288.113839 350.022321 287.539062 C 349.492188 284.69308 348.878348 281.863839 348.180804 279.051339 C 348.11942 278.800223 348.247768 278.498884 348.498884 278.309152 C 348.928571 277.985491 349.012277 277.561384 348.75 277.042411 " transform="matrix(0.7,0,0,0.7,0,0)" />
    <path style="fill:none;stroke-width:2;stroke-linecap:butt;stroke-linejoin:miter;stroke:rgb(52.941176%,61.176471%,26.666667%);stroke-opacity:0.992157;stroke-miterlimit:4;" d="M 445.708705 255 L 445.290179 255.251116 " transform="matrix(0.7,0,0,0.7,0,0)" />
    <path style="fill:none;stroke-width:2;stroke-linecap:butt;stroke-linejoin:miter;stroke:rgb(36.862745%,40.784314%,15.686275%);stroke-opacity:1;stroke-miterlimit:4;" d="M 435.747768 238.710938 C 425.022321 239.268973 418.688616 239.36942 416.752232 239.001116 C 414.319196 238.537946 412.645089 239.358259 411.741071 241.462054 C 411.361607 242.332589 410.948661 243.191964 410.502232 244.040179 " transform="matrix(0.7,0,0,0.7,0,0)" />
    <path style="fill:none;stroke-width:2;stroke-linecap:butt;stroke-linejoin:miter;stroke:rgb(77.254902%,83.137255%,28.627451%);stroke-opacity:1;stroke-miterlimit:4;" d="M 410.502232 244.040179 C 409.955357 242.66183 409.034598 241.768973 407.739955 241.372768 C 407.5 241.300223 407.237723 241.450893 407.109375 241.729911 C 406.914062 242.148438 406.5625 242.405134 406.037946 242.5 " transform="matrix(0.7,0,0,0.7,0,0)" />
    <path style="fill:none;stroke-width:2;stroke-linecap:butt;stroke-linejoin:miter;stroke:rgb(52.54902%,61.176471%,29.803922%);stroke-opacity:0.992157;stroke-miterlimit:4;" d="M 390.541295 233.247768 L 391.25 232.712054 " transform="matrix(0.7,0,0,0.7,0,0)" />
    <path style="fill:none;stroke-width:2;stroke-linecap:butt;stroke-linejoin:miter;stroke:rgb(82.745098%,87.45098%,43.529412%);stroke-opacity:1;stroke-miterlimit:4;" d="M 63.091518 225.189732 C 62.929688 225.228795 62.790179 225.31808 62.678571 225.452009 C 61.858259 226.395089 61.819196 226.847098 62.561384 226.802455 C 63.180804 226.752232 63.75 226.5625 64.268973 226.227679 C 66.662946 224.698661 66.272321 224.352679 63.091518 225.189732 " transform="matrix(0.7,0,0,0.7,0,0)" />
    <path style=" stroke:none;fill-rule:nonzero;fill:rgb(64.313725%,76.862745%,26.27451%);fill-opacity:1;" d="M 186.226562 99.226562 C 185.742188 98.628906 185.484375 97.941406 185.449219 97.167969 C 185.445312 96.929688 185.359375 96.710938 185.226562 96.558594 C 183.976562 95.1875 182.542969 94.035156 180.921875 93.101562 L 180.746094 92.574219 C 182.730469 92.203125 184.328125 92.886719 185.542969 94.632812 C 186.578125 96.113281 186.808594 97.644531 186.226562 99.226562 Z M 186.226562 99.226562 " />
    <path style=" stroke:none;fill-rule:nonzero;fill:rgb(79.607843%,84.313725%,23.921569%);fill-opacity:1;" d="M 180.746094 92.574219 L 180.921875 93.101562 C 180.019531 93.257812 179.898438 93.5625 180.558594 94.015625 C 182.367188 95.261719 183.496094 96.117188 183.945312 96.578125 C 184.976562 97.644531 185.191406 98.746094 184.582031 99.882812 C 183.925781 101.105469 183.03125 101.613281 181.902344 101.410156 C 181.261719 101.292969 180.523438 100.8125 179.691406 99.972656 C 178.914062 99.199219 178.140625 98.425781 177.367188 97.648438 C 177.363281 97.648438 177.238281 97.484375 176.996094 97.152344 C 176.804688 96.894531 176.554688 96.886719 176.253906 97.125 C 176.171875 94.101562 177.671875 92.585938 180.746094 92.574219 Z M 180.746094 92.574219 " />
    <path style=" stroke:none;fill-rule:nonzero;fill:rgb(90.588235%,92.156863%,77.647059%);fill-opacity:1;" d="M 180.921875 93.101562 C 182.542969 94.035156 183.976562 95.1875 185.226562 96.558594 C 185.359375 96.710938 185.445312 96.929688 185.449219 97.167969 C 185.484375 97.941406 185.742188 98.628906 186.226562 99.226562 C 185.542969 100.554688 184.539062 101.554688 183.226562 102.226562 L 180.976562 102.375 L 176.023438 97.648438 C 176.039062 97.449219 176.117188 97.273438 176.253906 97.125 C 176.554688 96.886719 176.804688 96.894531 176.996094 97.152344 C 177.238281 97.484375 177.363281 97.648438 177.367188 97.648438 C 178.140625 98.425781 178.914062 99.199219 179.691406 99.972656 C 180.523438 100.8125 181.261719 101.292969 181.902344 101.410156 C 183.03125 101.613281 183.925781 101.105469 184.582031 99.882812 C 185.191406 98.746094 184.976562 97.644531 183.945312 96.578125 C 183.496094 96.117188 182.367188 95.261719 180.558594 94.015625 C 179.898438 93.5625 180.019531 93.257812 180.921875 93.101562 Z M 180.921875 93.101562 " />
    <path style=" stroke:none;fill-rule:nonzero;fill:rgb(79.607843%,84.313725%,23.921569%);fill-opacity:1;" d="M 176.023438 97.648438 L 180.976562 102.375 L 182.027344 102.726562 C 181.902344 102.898438 181.71875 102.964844 181.476562 102.929688 C 178.917969 102.839844 177.101562 101.664062 176.023438 99.398438 C 175.8125 98.808594 175.8125 98.222656 176.023438 97.648438 Z M 176.023438 97.648438 " />
    <path style=" stroke:none;fill-rule:nonzero;fill:rgb(0%,0%,0%);fill-opacity:1;" d="M 176.023438 99.398438 C 177.101562 101.664062 178.917969 102.839844 181.476562 102.929688 L 155.050781 140.554688 C 154.601562 138.929688 153.679688 137.695312 152.277344 136.851562 L 151.550781 136.296875 L 150.324219 135.773438 Z M 176.023438 99.398438 " />
    <path style=" stroke:none;fill-rule:nonzero;fill:rgb(78.823529%,84.313725%,50.588235%);fill-opacity:1;" d="M 183.226562 102.226562 C 182.882812 102.535156 182.484375 102.703125 182.027344 102.726562 L 180.976562 102.375 Z M 183.226562 102.226562 " />
    <path style=" stroke:none;fill-rule:nonzero;fill:rgb(64.313725%,76.862745%,26.27451%);fill-opacity:1;" d="M 138.570312 118.476562 L 137.898438 118.503906 C 136.660156 116.394531 135.082031 114.566406 133.175781 113.023438 C 133.570312 112.664062 133.980469 112.554688 134.398438 112.699219 C 137 113.605469 138.390625 115.53125 138.570312 118.476562 Z M 138.570312 118.476562 " />
    <path style=" stroke:none;fill-rule:nonzero;fill:rgb(79.607843%,84.313725%,23.921569%);fill-opacity:1;" d="M 132.503906 113.226562 C 132.523438 113.683594 132.757812 114.078125 133.21875 114.40625 C 134.121094 115.066406 135.003906 115.90625 135.863281 116.929688 C 136.273438 117.417969 136.53125 117.878906 136.632812 118.308594 C 136.773438 118.886719 136.746094 119.433594 136.554688 119.953125 C 136.289062 120.675781 135.765625 121.183594 134.988281 121.476562 C 133.421875 122.074219 131.941406 121.265625 130.558594 119.050781 C 130.183594 118.460938 129.867188 117.84375 129.605469 117.195312 C 129.515625 116.976562 129.140625 116.992188 128.476562 117.25 C 128.09375 115.664062 128.5625 114.5 129.878906 113.757812 C 129.964844 113.707031 130.246094 113.519531 130.71875 113.195312 C 131.269531 112.820312 131.863281 112.828125 132.503906 113.226562 Z M 132.503906 113.226562 " />
    <path style=" stroke:none;fill-rule:nonzero;fill:rgb(90.588235%,92.156863%,77.647059%);fill-opacity:1;" d="M 133.175781 113.023438 C 135.082031 114.566406 136.660156 116.394531 137.898438 118.503906 C 137.839844 118.824219 137.90625 119.105469 138.101562 119.351562 C 137.492188 121.472656 136.082031 122.628906 133.875 122.820312 C 132.453125 122.613281 131.386719 121.878906 130.683594 120.617188 C 130.382812 120.089844 129.628906 119.027344 128.421875 117.425781 L 128.476562 117.25 C 129.140625 116.992188 129.515625 116.976562 129.605469 117.195312 C 129.867188 117.84375 130.183594 118.460938 130.558594 119.050781 C 131.941406 121.265625 133.421875 122.074219 134.988281 121.476562 C 135.765625 121.183594 136.289062 120.675781 136.554688 119.953125 C 136.746094 119.433594 136.773438 118.886719 136.632812 118.308594 C 136.53125 117.878906 136.273438 117.417969 135.863281 116.929688 C 135.003906 115.90625 134.121094 115.066406 133.21875 114.40625 C 132.757812 114.078125 132.523438 113.683594 132.503906 113.226562 Z M 133.175781 113.023438 " />
    <path style=" stroke:none;fill-rule:nonzero;fill:rgb(79.607843%,84.313725%,23.921569%);fill-opacity:1;" d="M 128.421875 117.425781 C 129.628906 119.027344 130.382812 120.089844 130.683594 120.617188 C 131.386719 121.878906 132.453125 122.613281 133.875 122.820312 L 133.523438 122.878906 L 131.425781 122.878906 C 129.359375 122.023438 128.066406 120.496094 127.546875 118.300781 C 127.59375 117.726562 127.886719 117.433594 128.421875 117.425781 Z M 128.421875 117.425781 " />
    <path style=" stroke:none;fill-rule:nonzero;fill:rgb(0%,0%,0%);fill-opacity:1;" d="M 127.546875 118.300781 C 128.066406 120.496094 129.359375 122.023438 131.425781 122.878906 L 132.300781 123.226562 C 131.949219 123.386719 131.664062 123.617188 131.4375 123.921875 C 123.425781 134.601562 115.359375 145.246094 107.234375 155.847656 C 107.214844 155.867188 106.78125 156.5 105.929688 157.746094 C 105.257812 158.734375 104.433594 159.585938 103.453125 160.300781 C 103.605469 159.480469 103.589844 158.660156 103.398438 157.851562 C 102.945312 156.03125 101.785156 154.855469 99.925781 154.320312 Z M 127.546875 118.300781 " />
    <path style=" stroke:none;fill-rule:nonzero;fill:rgb(30.980392%,40.392157%,27.843137%);fill-opacity:0.980392;" d="M 137.898438 118.503906 L 138.570312 118.476562 C 138.707031 118.625 138.785156 118.800781 138.804688 119 C 138.742188 119.359375 138.507812 119.476562 138.101562 119.351562 C 137.90625 119.105469 137.839844 118.824219 137.898438 118.503906 Z M 137.898438 118.503906 " />
    <path style=" stroke:none;fill-rule:nonzero;fill:rgb(0%,0%,0%);fill-opacity:1;" d="M 138.804688 119 L 148.574219 135.773438 C 147.378906 136.261719 146.332031 136.960938 145.425781 137.871094 C 145.214844 138.066406 145.089844 138.3125 145.046875 138.601562 C 144.453125 139.558594 144.164062 140.605469 144.171875 141.75 L 133.496094 123.199219 L 133.523438 122.878906 L 133.875 122.820312 C 136.082031 122.628906 137.492188 121.472656 138.101562 119.351562 C 138.507812 119.476562 138.742188 119.359375 138.804688 119 Z M 138.804688 119 " />
    <path style=" stroke:none;fill-rule:nonzero;fill:rgb(64.313725%,76.862745%,26.27451%);fill-opacity:1;" d="M 131.425781 122.878906 L 133.523438 122.878906 L 133.496094 123.199219 L 132.300781 123.226562 Z M 131.425781 122.878906 " />
    <path style=" stroke:none;fill-rule:nonzero;fill:rgb(80.784314%,84.705882%,25.490196%);fill-opacity:1;" d="M 79.476562 132.648438 C 79.035156 134.769531 77.859375 136.351562 75.949219 137.402344 L 73.003906 137.726562 C 71.019531 136.824219 69.660156 135.367188 68.921875 133.351562 C 68.710938 132.25 68.851562 131.277344 69.335938 130.4375 C 69.691406 129.820312 70.269531 129.097656 71.070312 128.269531 C 72.53125 126.769531 74.390625 126.539062 76.648438 127.574219 C 78.683594 128.507812 79.628906 130.199219 79.476562 132.648438 Z M 79.476562 132.648438 " />
    <path style=" stroke:none;fill-rule:nonzero;fill:rgb(0%,0%,0%);fill-opacity:1;" d="M 79.476562 132.648438 C 80.351562 133.214844 81.523438 134.425781 82.992188 136.28125 C 87.714844 142.242188 92.367188 148.253906 96.949219 154.320312 L 96.398438 154.699219 L 95.523438 155.226562 C 93.882812 156.414062 93.078125 158.039062 93.101562 160.097656 C 88.007812 153.632812 82.976562 147.125 78.007812 140.566406 C 77.003906 139.246094 76.320312 138.191406 75.949219 137.402344 C 77.859375 136.351562 79.035156 134.769531 79.476562 132.648438 Z M 79.476562 132.648438 " />
    <path style=" stroke:none;fill-rule:nonzero;fill:rgb(0%,0%,0%);fill-opacity:1;" d="M 68.921875 133.351562 C 69.660156 135.367188 71.019531 136.824219 73.003906 137.726562 C 72.128906 138.894531 69.890625 141.449219 66.28125 145.382812 C 61.085938 151.042969 55.847656 156.667969 50.574219 162.253906 L 50.078125 162.226562 C 50.492188 161.339844 50.484375 160.472656 50.050781 159.628906 C 49.960938 158.238281 49.261719 157.285156 47.949219 156.773438 C 47.757812 156.546875 47.515625 156.382812 47.222656 156.273438 C 53.03125 149.832031 58.917969 143.457031 64.882812 137.15625 C 66.730469 135.203125 68.078125 133.933594 68.921875 133.351562 Z M 68.921875 133.351562 " />
    <path style=" stroke:none;fill-rule:nonzero;fill:rgb(79.607843%,84.313725%,23.921569%);fill-opacity:1;" d="M 148.574219 135.773438 L 150.324219 135.773438 L 151.550781 136.296875 C 150.972656 136.199219 150.761719 136.363281 150.925781 136.792969 C 151.757812 138.964844 152.304688 141.195312 152.566406 143.492188 C 152.585938 143.722656 152.515625 143.949219 152.375 144.117188 C 151.171875 145.472656 149.949219 145.804688 148.707031 145.101562 C 147.839844 144.613281 147.257812 143.679688 146.964844 142.304688 C 146.738281 141.242188 146.558594 140.082031 146.433594 138.816406 C 146.367188 138.1875 146.03125 137.871094 145.425781 137.871094 C 146.332031 136.960938 147.378906 136.261719 148.574219 135.773438 Z M 148.574219 135.773438 " />
    <path style=" stroke:none;fill-rule:nonzero;fill:rgb(85.490196%,90.196078%,63.137255%);fill-opacity:1;" d="M 151.550781 136.296875 L 152.277344 136.851562 C 152.324219 138.199219 152.652344 139.46875 153.265625 140.65625 C 153.523438 141.160156 153.632812 141.597656 153.601562 141.96875 C 153.5625 142.355469 153.476562 142.820312 153.34375 143.367188 C 153.214844 143.890625 153.484375 144.050781 154.148438 143.851562 C 152.242188 146.601562 149.742188 147.175781 146.648438 145.570312 C 146.609375 144.601562 146.335938 143.699219 145.832031 142.871094 C 145.738281 142.714844 145.671875 142.503906 145.628906 142.234375 L 145.046875 138.601562 C 145.089844 138.3125 145.214844 138.066406 145.425781 137.871094 C 146.03125 137.871094 146.367188 138.1875 146.433594 138.816406 C 146.558594 140.082031 146.738281 141.242188 146.964844 142.304688 C 147.257812 143.679688 147.839844 144.613281 148.707031 145.101562 C 149.949219 145.804688 151.171875 145.472656 152.375 144.117188 C 152.515625 143.949219 152.585938 143.722656 152.566406 143.492188 C 152.304688 141.195312 151.757812 138.964844 150.925781 136.792969 C 150.761719 136.363281 150.972656 136.199219 151.550781 136.296875 Z M 151.550781 136.296875 " />
    <path style=" stroke:none;fill-rule:nonzero;fill:rgb(64.313725%,76.862745%,26.27451%);fill-opacity:1;" d="M 152.277344 136.851562 C 153.679688 137.695312 154.601562 138.929688 155.050781 140.554688 L 154.148438 143.851562 C 153.484375 144.050781 153.214844 143.890625 153.34375 143.367188 C 153.476562 142.820312 153.5625 142.355469 153.601562 141.96875 C 153.632812 141.597656 153.523438 141.160156 153.265625 140.65625 C 152.652344 139.46875 152.324219 138.199219 152.277344 136.851562 Z M 152.277344 136.851562 " />
    <path style=" stroke:none;fill-rule:nonzero;fill:rgb(80.784314%,84.705882%,25.490196%);fill-opacity:1;" d="M 145.046875 138.601562 L 145.628906 142.234375 C 145.671875 142.503906 145.738281 142.714844 145.832031 142.871094 C 146.335938 143.699219 146.609375 144.601562 146.648438 145.570312 C 145.390625 144.601562 144.5625 143.328125 144.171875 141.75 C 144.164062 140.605469 144.453125 139.558594 145.046875 138.601562 Z M 145.046875 138.601562 " />
    <path style=" stroke:none;fill-rule:nonzero;fill:rgb(64.313725%,76.862745%,26.27451%);fill-opacity:1;" d="M 282.625 232.546875 C 280.785156 231.570312 281.082031 231.027344 283.507812 230.910156 C 285.070312 230.835938 286.605469 230.613281 288.113281 230.25 C 288.453125 230.167969 289.550781 229.769531 291.410156 229.0625 C 292.511719 228.640625 293.648438 228.339844 294.824219 228.15625 C 294.863281 228.152344 294.894531 228.140625 294.917969 228.121094 L 301.742188 223.335938 C 301.84375 223.265625 302.019531 223.097656 302.265625 222.832031 C 303.890625 221.105469 305.394531 219.34375 306.78125 217.546875 C 307.777344 216.253906 308.578125 214.980469 309.183594 213.722656 C 309.898438 212.238281 310.4375 210.824219 310.800781 209.476562 C 311.171875 208.085938 310.988281 206.683594 310.246094 205.273438 C 317.738281 197.648438 320.195312 188.316406 317.625 177.273438 C 316.742188 173.480469 315.578125 170.496094 314.125 168.320312 L 313.453125 167.125 C 309.105469 160.117188 302.925781 156.019531 294.917969 154.832031 C 292.511719 154.476562 289.582031 154.386719 286.125 154.554688 C 285.304688 154.332031 284.65625 153.863281 284.1875 153.144531 C 283.453125 152.03125 282.453125 151.464844 281.191406 151.453125 C 279.863281 151.4375 279.1875 151.429688 279.160156 151.425781 C 277.941406 151.246094 276.75 150.96875 275.582031 150.589844 C 274.425781 150.21875 273.339844 150.046875 272.320312 150.078125 C 270.726562 150.125 269.039062 150.148438 267.261719 150.148438 C 267.023438 150.148438 266.785156 150.171875 266.546875 150.214844 C 264.546875 150.578125 262.789062 150.683594 261.269531 150.535156 C 261.082031 150.519531 260.855469 150.554688 260.597656 150.632812 L 258.335938 151.339844 C 258.125 151.410156 257.941406 151.550781 257.839844 151.738281 C 257.449219 152.398438 256.953125 152.488281 256.347656 152.011719 C 255.953125 151.710938 255.402344 151.738281 255.050781 152.089844 C 254.640625 152.492188 254.265625 152.613281 253.925781 152.453125 C 269.398438 142.367188 285.089844 141.777344 301 150.675781 C 308.289062 154.753906 313.839844 160.5 317.652344 167.910156 C 319.761719 172.011719 321.210938 176.421875 321.992188 181.144531 C 323.882812 192.550781 321.496094 203.285156 314.832031 213.347656 C 311.21875 218.800781 306.480469 223.273438 300.609375 226.757812 C 294.929688 230.121094 288.933594 232.050781 282.625 232.546875 Z M 282.625 232.546875 " />
    <path style=" stroke:none;fill-rule:nonzero;fill:rgb(68.627451%,79.215686%,32.156863%);fill-opacity:1;" d="M 286.125 154.554688 C 281.890625 155.136719 279.164062 155.722656 277.941406 156.316406 C 277.167969 156.699219 276.046875 156.917969 274.574219 156.976562 C 273.824219 157.003906 273.523438 157.46875 273.671875 158.375 C 273.457031 158.257812 273.304688 158.09375 273.21875 157.886719 C 273.117188 157.652344 272.964844 157.492188 272.796875 157.445312 C 271.046875 156.957031 269.261719 156.753906 267.441406 156.828125 C 267.238281 156.835938 267.070312 156.980469 267.035156 157.183594 L 265.851562 163.800781 C 265.847656 163.363281 265.667969 163.171875 265.308594 163.226562 C 265.128906 163.253906 264.953125 163.371094 264.78125 163.574219 C 263.992188 164.5 263.117188 165.332031 262.15625 166.074219 C 262.113281 166.109375 261.824219 166.265625 261.28125 166.542969 C 260.816406 166.78125 260.589844 167.210938 260.601562 167.824219 C 258.441406 168.675781 257.335938 170.308594 257.277344 172.726562 C 257.441406 171.824219 257.191406 171.441406 256.527344 171.578125 C 256.320312 171.617188 256.101562 171.609375 255.871094 171.550781 C 255.515625 171.457031 255.167969 171.496094 254.828125 171.675781 C 255.472656 169.058594 254.644531 167.714844 252.351562 167.648438 C 248.835938 167.546875 245.328125 167.371094 241.820312 167.125 C 241.886719 166.066406 242.304688 164.957031 243.074219 163.800781 C 246.144531 159.164062 249.761719 155.382812 253.925781 152.453125 C 254.265625 152.613281 254.640625 152.492188 255.050781 152.089844 C 255.402344 151.738281 255.953125 151.710938 256.347656 152.011719 C 256.953125 152.488281 257.449219 152.398438 257.839844 151.738281 C 257.941406 151.550781 258.125 151.410156 258.335938 151.339844 L 260.597656 150.632812 C 260.855469 150.554688 261.082031 150.519531 261.269531 150.535156 C 262.789062 150.683594 264.546875 150.578125 266.546875 150.214844 C 266.785156 150.171875 267.023438 150.148438 267.261719 150.148438 C 269.039062 150.148438 270.726562 150.125 272.320312 150.078125 C 273.339844 150.046875 274.425781 150.21875 275.582031 150.589844 C 276.75 150.96875 277.941406 151.246094 279.160156 151.425781 C 279.1875 151.429688 279.863281 151.4375 281.191406 151.453125 C 282.453125 151.464844 283.453125 152.03125 284.1875 153.144531 C 284.65625 153.863281 285.304688 154.332031 286.125 154.554688 Z M 286.125 154.554688 " />
    <path style=" stroke:none;fill-rule:nonzero;fill:rgb(64.313725%,76.862745%,26.27451%);fill-opacity:1;" d="M 99.925781 154.320312 C 101.785156 154.855469 102.945312 156.03125 103.398438 157.851562 C 102.90625 157.9375 102.546875 157.820312 102.3125 157.5 C 102.136719 157.253906 101.96875 157.078125 101.84375 157.03125 L 96.949219 155.078125 L 96.398438 154.699219 L 96.949219 154.320312 Z M 99.925781 154.320312 " />
    <path style=" stroke:none;fill-rule:nonzero;fill:rgb(78.823529%,84.313725%,50.588235%);fill-opacity:1;" d="M 96.398438 154.699219 L 96.949219 155.078125 C 96.632812 155.214844 96.449219 155.4375 96.398438 155.75 L 95.523438 155.226562 Z M 96.398438 154.699219 " />
    <path style=" stroke:none;fill-rule:nonzero;fill:rgb(85.490196%,90.196078%,63.137255%);fill-opacity:1;" d="M 96.949219 155.078125 L 101.84375 157.03125 C 101.96875 157.078125 102.136719 157.253906 102.3125 157.5 C 102.546875 157.820312 102.90625 157.9375 103.398438 157.851562 C 103.589844 158.660156 103.605469 159.480469 103.453125 160.300781 L 103.074219 161.726562 L 102.828125 161.699219 C 102.695312 161.6875 102.597656 161.558594 102.605469 161.414062 C 102.714844 159.089844 101.6875 157.625 99.53125 157.015625 C 98.132812 156.625 97.085938 156.203125 96.398438 155.75 C 96.449219 155.4375 96.632812 155.214844 96.949219 155.078125 Z M 96.949219 155.078125 " />
    <path style=" stroke:none;fill-rule:nonzero;fill:rgb(79.607843%,84.313725%,23.921569%);fill-opacity:1;" d="M 95.523438 155.226562 L 96.398438 155.75 C 97.085938 156.203125 98.132812 156.625 99.53125 157.015625 C 101.6875 157.625 102.714844 159.089844 102.605469 161.414062 C 102.597656 161.558594 102.695312 161.6875 102.828125 161.699219 L 103.074219 161.726562 L 102.523438 162.050781 L 102.289062 162.015625 C 102.117188 161.988281 101.960938 162.007812 101.886719 162.070312 C 100.597656 163.089844 99.226562 163.140625 97.777344 162.230469 C 96.992188 161.742188 95.828125 161.054688 94.28125 160.167969 C 93.871094 159.933594 93.527344 159.917969 93.246094 160.125 L 93.101562 160.097656 C 93.078125 158.039062 93.882812 156.414062 95.523438 155.226562 Z M 95.523438 155.226562 " />
    <path style=" stroke:none;fill-rule:nonzero;fill:rgb(79.607843%,84.313725%,23.921569%);fill-opacity:1;" d="M 47.222656 156.273438 C 47.515625 156.382812 47.757812 156.546875 47.949219 156.773438 L 47.425781 157.296875 C 46.546875 157.335938 46.464844 157.546875 47.179688 157.933594 C 49.105469 158.992188 49.714844 160.589844 49 162.722656 L 47.601562 163.652344 L 42.824219 165.558594 C 42.59375 165.648438 42.363281 165.65625 42.203125 165.570312 C 41.152344 165 40.457031 163.910156 40.117188 162.296875 C 39.992188 161.699219 40.265625 161.089844 40.789062 160.78125 C 41.277344 160.5 41.78125 160.140625 42.292969 159.703125 C 42.769531 159.300781 42.613281 159.332031 41.824219 159.804688 C 40.625 160.511719 40.148438 160.363281 40.398438 159.355469 C 40.476562 159.039062 40.628906 158.726562 40.851562 158.417969 C 42.367188 156.332031 44.492188 155.617188 47.222656 156.273438 Z M 44.164062 157.632812 C 44.050781 157.660156 43.953125 157.722656 43.875 157.816406 C 43.300781 158.476562 43.273438 158.792969 43.792969 158.761719 C 44.226562 158.726562 44.625 158.59375 44.988281 158.359375 C 46.664062 157.289062 46.390625 157.046875 44.164062 157.632812 Z M 44.164062 157.632812 " />
    <path style=" stroke:none;fill-rule:nonzero;fill:rgb(0%,0%,0%);fill-opacity:1;" d="M 127.058594 156.773438 C 127.394531 156.808594 127.632812 157.109375 127.582031 157.445312 C 126.046875 168.757812 124.410156 180.03125 122.675781 191.273438 C 122.539062 192.136719 122.035156 192.808594 121.164062 193.285156 C 120.632812 193.574219 119.859375 193.734375 118.851562 193.765625 C 112.425781 193.992188 106.003906 193.992188 99.582031 193.773438 C 98.441406 193.730469 97.664062 193.539062 97.242188 193.191406 C 96.578125 192.648438 96.304688 191.773438 96.425781 190.574219 C 97.320312 181.800781 98.371094 174.917969 99.574219 169.925781 C 99.792969 169.011719 100.382812 168.359375 101.339844 167.972656 C 101.847656 167.765625 102.667969 167.644531 103.804688 167.601562 C 108.148438 167.441406 112.699219 167.40625 117.460938 167.488281 C 118.402344 167.503906 118.910156 167.042969 118.984375 166.109375 C 119.199219 163.347656 119.746094 160.726562 120.617188 158.25 C 120.835938 157.625 121.359375 157.164062 122.003906 157.023438 C 123.636719 156.667969 125.320312 156.585938 127.058594 156.773438 Z M 104.746094 186.242188 L 114.679688 186.410156 C 115.648438 186.429688 116.195312 185.933594 116.324219 184.917969 L 117.585938 175.503906 C 117.621094 175.238281 117.402344 175 117.132812 175 L 107.015625 175 C 106.46875 175 106 175.386719 105.890625 175.917969 C 105.15625 179.34375 104.6875 182.679688 104.480469 185.933594 C 104.46875 186.09375 104.59375 186.234375 104.746094 186.242188 Z M 104.746094 186.242188 " />
    <path style=" stroke:none;fill-rule:nonzero;fill:rgb(0%,0%,0%);fill-opacity:1;" d="M 167.980469 156.742188 C 168.355469 156.808594 168.609375 157.164062 168.546875 157.542969 C 167.542969 163.738281 166.675781 169.910156 165.941406 176.058594 C 165.453125 180.167969 164.832031 184.257812 164.085938 188.328125 C 163.753906 190.148438 163.539062 191.171875 163.441406 191.394531 C 162.984375 192.46875 162.109375 193.179688 160.816406 193.527344 C 159.507812 193.878906 158.199219 194.003906 156.898438 193.90625 C 156.394531 193.871094 156.023438 193.417969 156.09375 192.914062 C 157.015625 186.160156 157.953125 179.429688 158.898438 172.726562 C 159.660156 167.34375 160.3125 163.253906 160.851562 160.453125 C 161.105469 159.175781 161.570312 158.261719 162.246094 157.71875 C 163.125 157.003906 164.191406 156.675781 165.445312 156.738281 C 165.828125 156.753906 166.246094 156.742188 166.703125 156.703125 C 167.144531 156.65625 167.566406 156.667969 167.980469 156.742188 Z M 167.980469 156.742188 " />
    <path style=" stroke:none;fill-rule:nonzero;fill:rgb(30.980392%,40.392157%,27.843137%);fill-opacity:0.980392;" d="M 47.949219 156.773438 C 49.261719 157.285156 49.960938 158.238281 50.050781 159.628906 C 49.613281 158.347656 48.738281 157.574219 47.425781 157.296875 Z M 47.949219 156.773438 " />
    <path style=" stroke:none;fill-rule:nonzero;fill:rgb(0%,0%,0%);fill-opacity:1;" d="M 215.109375 167.460938 L 224.433594 167.628906 C 225.464844 167.648438 225.945312 168.144531 225.875 169.121094 C 225.554688 173.488281 223.117188 175.5 218.5625 175.160156 C 217.113281 175.054688 215.640625 175 214.136719 175 C 213.722656 175 213.382812 175.292969 213.324219 175.6875 L 211.910156 185.898438 C 211.863281 186.277344 212.171875 186.613281 212.5625 186.605469 L 222.570312 186.585938 C 223.019531 186.585938 223.371094 186.984375 223.320312 187.4375 C 223.101562 189.433594 222.632812 191.058594 221.914062 192.324219 C 221.414062 193.210938 220.65625 193.679688 219.640625 193.726562 C 215.433594 193.921875 211.230469 193.972656 207.023438 193.878906 C 205.894531 193.855469 205.015625 193.484375 204.386719 192.765625 C 203.902344 192.214844 203.730469 191.394531 203.875 190.300781 C 204.515625 185.429688 205.160156 180.53125 205.8125 175.609375 C 205.855469 175.285156 205.605469 175 205.273438 175 L 199.15625 175 C 198.785156 175 198.492188 174.691406 198.507812 174.320312 C 198.585938 172.65625 198.992188 170.96875 199.722656 169.261719 C 200.066406 168.460938 200.679688 168.03125 201.566406 167.972656 L 206.296875 167.664062 C 206.730469 167.636719 207.089844 167.300781 207.152344 166.851562 L 208.578125 157.191406 C 208.613281 156.976562 208.789062 156.8125 208.992188 156.828125 L 213.96875 157.113281 C 214.921875 157.167969 215.351562 157.710938 215.265625 158.746094 L 214.550781 166.78125 C 214.515625 167.140625 214.773438 167.453125 215.109375 167.460938 Z M 215.109375 167.460938 " />
    <path style=" stroke:none;fill-rule:nonzero;fill:rgb(0%,0%,0%);fill-opacity:1;" d="M 273.671875 158.375 L 273.671875 161.699219 C 273.089844 162.125 272.992188 162.648438 273.378906 163.273438 L 272.8125 166.824219 C 272.746094 167.257812 273.054688 167.648438 273.46875 167.648438 C 276.273438 167.648438 279.0625 167.648438 281.839844 167.648438 C 281.886719 167.648438 282.289062 167.621094 283.046875 167.558594 C 284.390625 167.457031 284.785156 168.1875 284.226562 169.75 C 284.101562 171.59375 283.398438 173.007812 282.121094 174 C 281.40625 174.554688 280.378906 174.816406 279.039062 174.789062 C 276.71875 174.738281 274.445312 174.707031 272.222656 174.699219 C 271.929688 174.691406 271.683594 174.914062 271.640625 175.210938 L 270.277344 185.71875 C 270.207031 186.226562 270.59375 186.675781 271.089844 186.675781 L 280.964844 186.726562 C 281.300781 186.726562 281.566406 186.992188 281.574219 187.328125 C 281.585938 189.707031 280.949219 191.621094 279.671875 193.074219 C 279.523438 193.242188 279.3125 193.359375 279.089844 193.402344 C 277.132812 193.816406 275.167969 193.984375 273.1875 193.898438 C 270.425781 193.789062 269.015625 193.734375 268.960938 193.738281 C 267.066406 193.738281 265.320312 193.726562 263.726562 193.695312 C 262.464844 193.671875 261.910156 193.023438 262.058594 191.742188 L 263.996094 175.050781 C 264.019531 174.859375 263.871094 174.691406 263.683594 174.699219 L 257.46875 174.777344 C 257.277344 174.78125 257.125 174.613281 257.136719 174.425781 L 257.277344 172.726562 C 257.335938 170.308594 258.441406 168.675781 260.601562 167.824219 L 264.636719 167.648438 C 264.976562 167.636719 265.265625 167.425781 265.308594 167.144531 L 265.851562 163.800781 L 267.035156 157.183594 C 267.070312 156.980469 267.238281 156.835938 267.441406 156.828125 C 269.261719 156.753906 271.046875 156.957031 272.796875 157.445312 C 272.964844 157.492188 273.117188 157.652344 273.21875 157.886719 C 273.304688 158.09375 273.457031 158.257812 273.671875 158.375 Z M 273.671875 158.375 " />
    <path style=" stroke:none;fill-rule:nonzero;fill:rgb(85.490196%,90.196078%,63.137255%);fill-opacity:1;" d="M 44.164062 157.632812 C 46.390625 157.046875 46.664062 157.289062 44.988281 158.359375 C 44.625 158.59375 44.226562 158.726562 43.792969 158.761719 C 43.273438 158.792969 43.300781 158.476562 43.875 157.816406 C 43.953125 157.722656 44.050781 157.660156 44.164062 157.632812 Z M 44.164062 157.632812 " />
    <path style=" stroke:none;fill-rule:nonzero;fill:rgb(90.588235%,92.156863%,77.647059%);fill-opacity:1;" d="M 102.523438 162.050781 C 102.441406 163.285156 101.753906 164.054688 100.449219 164.351562 C 98.882812 163.945312 97.960938 163.632812 97.691406 163.40625 C 96.480469 162.375 95.132812 161.574219 93.652344 161 L 93.246094 160.125 C 93.527344 159.917969 93.871094 159.933594 94.28125 160.167969 C 95.828125 161.054688 96.992188 161.742188 97.777344 162.230469 C 99.226562 163.140625 100.597656 163.089844 101.886719 162.070312 C 101.960938 162.007812 102.117188 161.988281 102.289062 162.015625 Z M 102.523438 162.050781 " />
    <path style=" stroke:none;fill-rule:nonzero;fill:rgb(73.333333%,81.568627%,31.372549%);fill-opacity:1;" d="M 305.023438 167.097656 C 297.515625 167.488281 293.082031 167.558594 291.726562 167.300781 C 290.023438 166.976562 288.851562 167.550781 288.21875 169.023438 C 287.953125 169.632812 287.664062 170.234375 287.351562 170.828125 C 286.96875 169.863281 286.324219 169.238281 285.417969 168.960938 C 285.25 168.910156 285.066406 169.015625 284.976562 169.210938 C 284.839844 169.503906 284.59375 169.683594 284.226562 169.75 C 284.785156 168.1875 284.390625 167.457031 283.046875 167.558594 C 282.289062 167.621094 281.886719 167.648438 281.839844 167.648438 C 279.0625 167.648438 276.273438 167.648438 273.46875 167.648438 C 273.054688 167.648438 272.746094 167.257812 272.8125 166.824219 L 273.378906 163.273438 L 273.875 162.898438 C 274.546875 163.210938 275.117188 163.320312 275.582031 163.234375 C 276.730469 163.003906 278.113281 162.617188 279.726562 162.070312 C 281.660156 161.417969 283.03125 161.007812 283.84375 160.847656 C 290.339844 159.535156 296.523438 160.636719 302.398438 164.148438 C 303.675781 164.910156 304.550781 165.894531 305.023438 167.097656 Z M 305.023438 167.097656 " />
    <path style=" stroke:none;fill-rule:nonzero;fill:rgb(80.784314%,84.705882%,25.490196%);fill-opacity:1;" d="M 93.652344 161 C 95.132812 161.574219 96.480469 162.375 97.691406 163.40625 C 97.960938 163.632812 98.882812 163.945312 100.449219 164.351562 C 99.496094 164.988281 98.390625 165.09375 97.125 164.675781 C 95.175781 164.027344 94.015625 162.800781 93.652344 161 Z M 93.652344 161 " />
    <path style=" stroke:none;fill-rule:nonzero;fill:rgb(30.980392%,40.392157%,27.843137%);fill-opacity:0.980392;" d="M 273.671875 161.699219 L 273.875 162.898438 L 273.378906 163.273438 C 272.992188 162.648438 273.089844 162.125 273.671875 161.699219 Z M 273.671875 161.699219 " />
    <path style=" stroke:none;fill-rule:nonzero;fill:rgb(80.784314%,84.705882%,25.490196%);fill-opacity:1;" d="M 50.078125 162.226562 L 50.574219 162.253906 C 50.242188 162.832031 49.902344 163.40625 49.554688 163.976562 C 48.320312 165.96875 46.546875 166.816406 44.226562 166.523438 C 43.96875 166.488281 43.757812 166.367188 43.652344 166.207031 C 43.453125 165.90625 43.585938 165.671875 44.058594 165.507812 C 45.636719 164.949219 46.824219 164.378906 47.628906 163.800781 C 48.320312 163.703125 48.835938 163.363281 49.175781 162.777344 C 49.59375 162.78125 49.894531 162.597656 50.078125 162.226562 Z M 50.078125 162.226562 " />
    <path style=" stroke:none;fill-rule:nonzero;fill:rgb(0%,0%,0%);fill-opacity:1;" d="M 49 162.722656 L 49.175781 162.777344 C 48.835938 163.363281 48.320312 163.703125 47.628906 163.800781 L 47.601562 163.652344 Z M 49 162.722656 " />
    <path style=" stroke:none;fill-rule:nonzero;fill:rgb(78.823529%,84.313725%,50.588235%);fill-opacity:1;" d="M 265.851562 163.800781 L 265.308594 167.144531 C 265.265625 167.425781 264.976562 167.636719 264.636719 167.648438 L 260.601562 167.824219 C 260.589844 167.210938 260.816406 166.78125 261.28125 166.542969 C 261.824219 166.265625 262.113281 166.109375 262.15625 166.074219 C 263.117188 165.332031 263.992188 164.5 264.78125 163.574219 C 264.953125 163.371094 265.128906 163.253906 265.308594 163.226562 C 265.667969 163.171875 265.847656 163.363281 265.851562 163.800781 Z M 265.851562 163.800781 " />
    <path style=" stroke:none;fill-rule:nonzero;fill:rgb(0%,0%,0%);fill-opacity:1;" d="M 241.820312 167.125 C 245.328125 167.371094 248.835938 167.546875 252.351562 167.648438 C 254.644531 167.714844 255.472656 169.058594 254.828125 171.675781 C 254.039062 177.238281 253.386719 182.8125 252.867188 188.40625 C 252.710938 190.082031 252.410156 191.238281 251.964844 191.882812 C 251.222656 192.964844 250.066406 193.574219 248.5 193.710938 C 247.042969 193.835938 245.585938 193.910156 244.125 193.929688 C 241.417969 193.796875 238.726562 193.90625 236.046875 194.25 L 228.1875 193.726562 C 226.5625 193.617188 225.75 192.796875 225.75 191.261719 C 225.75 187.835938 226.195312 184.335938 227.085938 180.761719 C 227.425781 179.394531 227.898438 178.449219 228.492188 177.925781 C 229.210938 177.296875 230.113281 177 231.195312 177.035156 C 232.058594 177.066406 232.507812 177.078125 232.546875 177.078125 C 236.917969 176.953125 241.292969 176.886719 245.664062 176.882812 C 245.902344 176.882812 246.121094 176.820312 246.296875 176.695312 C 247.175781 176.097656 247.21875 175.601562 246.421875 175.210938 C 246.132812 175.070312 245.757812 175 245.292969 175 C 241.347656 175.003906 237.398438 175.054688 233.457031 175.152344 C 229.941406 175.238281 228.480469 173.074219 229.066406 168.65625 C 229.144531 168.078125 229.628906 167.636719 230.214844 167.613281 Z M 245.632812 184.859375 C 245.621094 184.492188 245.328125 184.203125 244.964844 184.207031 L 234.449219 184.355469 C 234.085938 184.359375 233.800781 184.660156 233.800781 185.023438 L 233.8125 185.792969 C 233.820312 186.15625 234.113281 186.445312 234.480469 186.441406 L 244.992188 186.292969 C 245.355469 186.289062 245.644531 185.988281 245.640625 185.628906 Z M 245.632812 184.859375 " />
    <path style=" stroke:none;fill-rule:nonzero;fill:rgb(0%,0%,0%);fill-opacity:1;" d="M 305.023438 167.097656 C 307.835938 167.414062 310.644531 167.421875 313.453125 167.125 L 314.125 168.320312 C 313.738281 168.269531 313.546875 168.414062 313.558594 168.757812 C 313.5625 169.0625 313.554688 169.261719 313.535156 169.34375 C 313.292969 170.5 313.011719 171.648438 312.691406 172.789062 C 312.628906 173.003906 312.507812 173.199219 312.339844 173.355469 L 310.945312 174.648438 C 306.230469 174.433594 301.511719 174.425781 296.792969 174.621094 C 296.75 174.621094 296.292969 174.597656 295.421875 174.546875 C 294.441406 174.488281 293.691406 174.886719 293.167969 175.742188 C 292.628906 176.625 292.804688 177.0625 293.691406 177.058594 C 297.589844 177.039062 301.480469 176.9375 305.367188 176.75 C 307.398438 176.652344 309.207031 176.945312 310.800781 177.625 C 311.171875 177.785156 311.472656 178.132812 311.703125 178.675781 L 312.023438 180.398438 C 311.648438 184.304688 311.027344 188.066406 310.171875 191.6875 C 309.917969 192.734375 309.257812 193.296875 308.1875 193.375 C 302.996094 193.753906 297.796875 193.953125 292.601562 193.96875 C 290.191406 193.980469 287.820312 193.785156 285.480469 193.382812 C 284.976562 193.296875 284.605469 192.890625 284.597656 192.421875 L 284.542969 186.949219 C 284.542969 186.753906 284.710938 186.597656 284.929688 186.59375 C 290.699219 186.539062 296.464844 186.507812 302.226562 186.492188 C 303.753906 186.488281 304.304688 185.816406 303.878906 184.476562 C 303.8125 184.273438 303.625 184.136719 303.40625 184.121094 C 298.410156 183.785156 294.867188 183.71875 292.773438 183.925781 C 288.285156 184.371094 286.011719 182.390625 285.949219 177.976562 C 285.9375 176.984375 286.402344 174.601562 287.351562 170.828125 C 287.664062 170.234375 287.953125 169.632812 288.21875 169.023438 C 288.851562 167.550781 290.023438 166.976562 291.726562 167.300781 C 293.082031 167.558594 297.515625 167.488281 305.023438 167.097656 Z M 305.023438 167.097656 " />
    <path style=" stroke:none;fill-rule:nonzero;fill:rgb(0%,0%,0%);fill-opacity:1;" d="M 64.945312 168.160156 C 66.160156 168.628906 66.675781 169.503906 66.5 170.792969 C 65.785156 176.046875 65.117188 181.304688 64.492188 186.5625 C 64.273438 188.386719 63.898438 190.109375 63.371094 191.730469 C 62.941406 193.046875 62.0625 193.710938 60.738281 193.726562 L 44.652344 193.886719 C 44.324219 193.894531 44.050781 194.125 44.003906 194.4375 C 43.707031 196.351562 43.4375 198.09375 43.191406 199.667969 C 42.933594 201.257812 42.242188 202.519531 41.117188 203.449219 C 40.390625 204.054688 39.347656 204.425781 37.988281 204.5625 C 36.839844 204.675781 35.707031 204.742188 34.585938 204.75 C 33.929688 204.753906 33.832031 204.523438 34.292969 204.058594 C 34.699219 203.644531 35.042969 203.195312 35.320312 202.707031 C 35.558594 202.296875 35.722656 201.765625 35.8125 201.117188 C 36.972656 192.472656 38.125 183.828125 39.269531 175.183594 C 39.523438 173.289062 39.90625 171.414062 40.425781 169.5625 C 40.695312 168.617188 41.320312 168.085938 42.292969 167.964844 C 48.097656 167.25 54.003906 167.117188 60.011719 167.566406 C 60.070312 167.570312 60.777344 167.59375 62.132812 167.636719 C 63.167969 167.667969 64.105469 167.84375 64.945312 168.160156 Z M 45.792969 186.417969 L 55.480469 186.527344 C 56.429688 186.542969 56.964844 186.074219 57.085938 185.121094 L 58.316406 175.503906 C 58.351562 175.238281 58.136719 175 57.863281 175 L 48.390625 175 C 47.507812 175 46.964844 175.429688 46.753906 176.289062 C 45.945312 179.570312 45.484375 182.789062 45.375 185.953125 C 45.367188 186.207031 45.554688 186.410156 45.792969 186.417969 Z M 45.792969 186.417969 " />
    <path style=" stroke:none;fill-rule:nonzero;fill:rgb(0%,0%,0%);fill-opacity:1;" d="M 94.898438 168.308594 C 95.703125 168.847656 96.058594 169.621094 95.96875 170.617188 C 95.425781 176.648438 94.421875 183.488281 92.96875 191.140625 C 92.714844 192.46875 92.0625 193.261719 91.007812 193.523438 C 90.996094 193.527344 90.085938 193.578125 88.277344 193.675781 C 82.550781 193.988281 76.398438 194.003906 69.824219 193.726562 C 68.554688 193.667969 67.6875 193.214844 67.222656 192.367188 C 66.941406 191.847656 66.855469 190.988281 66.96875 189.785156 C 67.414062 184.871094 67.910156 181.472656 68.46875 179.59375 C 68.988281 177.824219 70.316406 176.992188 72.449219 177.101562 C 74.363281 177.191406 79.125 177.082031 86.738281 176.769531 C 87.222656 176.753906 87.589844 176.648438 87.835938 176.464844 C 88.320312 176.105469 88.300781 175.6875 87.78125 175.21875 C 87.617188 175.078125 87.394531 175 87.148438 175 C 83.019531 175 78.890625 175 74.761719 175 C 73.246094 175 72.207031 174.820312 71.636719 174.460938 C 70.695312 173.867188 70.136719 172.835938 69.957031 171.367188 C 69.785156 169.96875 69.871094 168.835938 70.210938 167.972656 C 70.28125 167.777344 70.476562 167.644531 70.699219 167.636719 C 78.289062 167.3125 85.875 167.378906 93.464844 167.824219 C 93.976562 167.859375 94.472656 168.019531 94.898438 168.308594 Z M 86.777344 185.132812 C 86.777344 184.652344 86.386719 184.269531 85.910156 184.265625 L 75.746094 184.285156 C 75.265625 184.28125 74.878906 184.675781 74.878906 185.152344 L 74.878906 185.671875 C 74.878906 186.152344 75.269531 186.535156 75.75 186.539062 L 85.914062 186.519531 C 86.394531 186.523438 86.777344 186.128906 86.78125 185.652344 Z M 86.777344 185.132812 " />
    <path style=" stroke:none;fill-rule:nonzero;fill:rgb(0%,0%,0%);fill-opacity:1;" d="M 154.351562 168.070312 C 155.050781 168.148438 155.582031 168.742188 155.574219 169.449219 C 155.554688 173.4375 155.089844 177.238281 154.175781 180.851562 C 153.863281 182.089844 153.394531 182.945312 152.773438 183.421875 C 152.089844 183.945312 151.269531 184.191406 150.3125 184.164062 C 149.429688 184.136719 148.972656 184.125 148.9375 184.128906 C 144.5625 184.292969 140.183594 184.367188 135.800781 184.359375 C 134.722656 184.359375 134.261719 184.851562 134.421875 185.835938 C 134.492188 186.277344 134.882812 186.59375 135.332031 186.570312 C 139.84375 186.351562 144.199219 186.34375 148.398438 186.550781 C 149.632812 186.609375 150.679688 186.859375 151.542969 187.300781 C 151.746094 187.398438 151.898438 187.578125 151.96875 187.804688 C 152.554688 189.613281 152.65625 191.460938 152.277344 193.339844 C 152.242188 193.542969 152.066406 193.691406 151.863281 193.695312 C 142.570312 194.09375 134.878906 194.101562 128.800781 193.726562 C 127.074219 193.617188 126.324219 192.570312 126.554688 190.582031 C 127.039062 186.371094 127.496094 182.164062 127.933594 177.960938 C 128.160156 175.753906 128.683594 173.308594 129.5 170.625 C 129.796875 169.648438 130.296875 168.90625 130.992188 168.398438 C 131.492188 168.03125 132.289062 167.804688 133.390625 167.71875 C 140.558594 167.183594 147.546875 167.300781 154.351562 168.070312 Z M 147.691406 175.484375 C 147.691406 175.210938 147.476562 174.992188 147.203125 174.992188 L 136.28125 174.992188 C 136.011719 174.992188 135.792969 175.210938 135.792969 175.484375 L 135.792969 176.433594 C 135.792969 176.707031 136.011719 176.925781 136.28125 176.925781 L 147.203125 176.925781 C 147.476562 176.925781 147.691406 176.707031 147.691406 176.433594 Z M 147.691406 175.484375 " />
    <path style=" stroke:none;fill-rule:nonzero;fill:rgb(0%,0%,0%);fill-opacity:1;" d="M 187.347656 185.394531 C 187.53125 184.828125 187.097656 184.253906 186.5 184.261719 C 181.222656 184.34375 176.28125 184.292969 171.675781 184.101562 C 169.351562 184.007812 168.359375 182.839844 168.699219 180.601562 C 169.148438 177.660156 169.558594 174.714844 169.933594 171.757812 C 170.078125 170.65625 170.359375 169.84375 170.777344 169.324219 C 171.171875 168.835938 171.652344 168.449219 172.226562 168.160156 C 172.667969 167.941406 173.253906 167.824219 173.984375 167.804688 C 181.109375 167.621094 188.488281 167.574219 196.117188 167.65625 C 196.582031 167.664062 196.9375 168.050781 196.917969 168.511719 C 196.78125 171.695312 195.738281 173.675781 193.78125 174.460938 C 193.257812 174.671875 191.339844 174.824219 188.027344 174.921875 C 184.632812 175.015625 181.242188 175.058594 177.847656 175.050781 C 177.609375 175.042969 177.394531 175.125 177.238281 175.28125 C 176.03125 176.464844 176.453125 177.035156 178.5 176.996094 C 182.964844 176.90625 187.433594 176.9375 191.898438 177.09375 C 192.988281 177.136719 193.785156 177.332031 194.285156 177.6875 C 195.101562 178.269531 195.441406 179.125 195.300781 180.25 C 194.570312 185.996094 194.105469 189.4375 193.898438 190.574219 C 193.679688 191.785156 193.09375 192.664062 192.136719 193.214844 C 191.550781 193.546875 190.597656 193.734375 189.265625 193.78125 C 183.226562 193.996094 177.1875 193.980469 171.144531 193.738281 C 169.878906 193.6875 169.007812 193.511719 168.53125 193.214844 C 167.660156 192.664062 167.296875 191.722656 167.441406 190.394531 C 167.539062 189.519531 167.609375 188.59375 167.65625 187.613281 C 167.683594 187.019531 168.183594 186.550781 168.777344 186.550781 L 186.023438 186.550781 C 186.269531 186.550781 186.492188 186.472656 186.660156 186.339844 C 187.007812 186.054688 187.234375 185.742188 187.347656 185.394531 Z M 187.347656 185.394531 " />
    <path style=" stroke:none;fill-rule:nonzero;fill:rgb(80.784314%,84.705882%,25.490196%);fill-opacity:1;" d="M 287.351562 170.828125 C 286.402344 174.601562 285.9375 176.984375 285.949219 177.976562 C 286.011719 182.390625 288.285156 184.371094 292.773438 183.925781 C 294.867188 183.71875 298.410156 183.785156 303.40625 184.121094 C 303.625 184.136719 303.8125 184.273438 303.878906 184.476562 C 304.304688 185.816406 303.753906 186.488281 302.226562 186.492188 C 296.464844 186.507812 290.699219 186.539062 284.929688 186.59375 C 284.710938 186.597656 284.542969 186.753906 284.542969 186.949219 L 284.597656 192.421875 C 284.605469 192.890625 284.976562 193.296875 285.480469 193.382812 C 287.820312 193.785156 290.191406 193.980469 292.601562 193.96875 C 297.796875 193.953125 302.996094 193.753906 308.1875 193.375 C 309.257812 193.296875 309.917969 192.734375 310.171875 191.6875 C 311.027344 188.066406 311.648438 184.304688 312.023438 180.398438 L 312.347656 180.425781 C 312.589844 182.890625 312.664062 185.351562 312.570312 187.816406 C 312.492188 189.878906 312.058594 191.765625 311.269531 193.472656 C 307.96875 200.664062 302.386719 205.589844 294.523438 208.25 C 290.933594 209.464844 287.683594 210.515625 284.78125 211.40625 C 280.511719 212.714844 277.296875 213.84375 275.140625 214.800781 C 270.976562 216.65625 266.945312 218.789062 263.054688 221.199219 L 260.023438 219.953125 C 259.9375 219.917969 259.773438 219.765625 259.523438 219.5 L 257.710938 217.546875 C 257.585938 217.414062 257.347656 217.355469 257.082031 217.398438 C 255.886719 217.582031 255.664062 217.914062 256.417969 218.398438 C 256.617188 218.527344 256.609375 218.621094 256.390625 218.6875 C 255.171875 219.035156 254.1875 218.699219 253.441406 217.671875 C 253.011719 217.078125 252.730469 216.972656 252.59375 217.355469 C 252.539062 217.511719 252.363281 217.574219 252.246094 217.484375 C 251.035156 216.492188 250.136719 215.300781 249.542969 213.90625 C 248.742188 212.019531 248.242188 210.894531 248.050781 210.53125 C 247.394531 209.265625 246.855469 207.945312 246.441406 206.570312 C 246.359375 206.285156 246.289062 205.761719 246.238281 204.996094 C 246.207031 204.433594 246.074219 203.90625 245.839844 203.414062 C 245.363281 202.390625 245.089844 201.679688 245.015625 201.277344 C 244.644531 199.285156 244.214844 197.304688 243.726562 195.335938 C 243.683594 195.160156 243.773438 194.949219 243.949219 194.816406 C 244.25 194.589844 244.308594 194.292969 244.125 193.929688 C 245.585938 193.910156 247.042969 193.835938 248.5 193.710938 C 250.066406 193.574219 251.222656 192.964844 251.964844 191.882812 C 252.410156 191.238281 252.710938 190.082031 252.867188 188.40625 C 253.386719 182.8125 254.039062 177.238281 254.828125 171.675781 C 255.167969 171.496094 255.515625 171.457031 255.871094 171.550781 C 256.101562 171.609375 256.320312 171.617188 256.527344 171.578125 C 257.191406 171.441406 257.441406 171.824219 257.277344 172.726562 L 257.136719 174.425781 C 257.125 174.613281 257.277344 174.78125 257.46875 174.777344 L 263.683594 174.699219 C 263.871094 174.691406 264.019531 174.859375 263.996094 175.050781 L 262.058594 191.742188 C 261.910156 193.023438 262.464844 193.671875 263.726562 193.695312 C 265.320312 193.726562 267.066406 193.738281 268.960938 193.738281 C 269.015625 193.734375 270.425781 193.789062 273.1875 193.898438 C 275.167969 193.984375 277.132812 193.816406 279.089844 193.402344 C 279.3125 193.359375 279.523438 193.242188 279.671875 193.074219 C 280.949219 191.621094 281.585938 189.707031 281.574219 187.328125 C 281.566406 186.992188 281.300781 186.726562 280.964844 186.726562 L 271.089844 186.675781 C 270.59375 186.675781 270.207031 186.226562 270.277344 185.71875 L 271.640625 175.210938 C 271.683594 174.914062 271.929688 174.691406 272.222656 174.699219 C 274.445312 174.707031 276.71875 174.738281 279.039062 174.789062 C 280.378906 174.816406 281.40625 174.554688 282.121094 174 C 283.398438 173.007812 284.101562 171.59375 284.226562 169.75 C 284.59375 169.683594 284.839844 169.503906 284.976562 169.210938 C 285.066406 169.015625 285.25 168.910156 285.417969 168.960938 C 286.324219 169.238281 286.96875 169.863281 287.351562 170.828125 Z M 287.351562 170.828125 " />
    <path style=" stroke:none;fill-rule:nonzero;fill:rgb(74.509804%,81.568627%,25.882353%);fill-opacity:1;" d="M 310.945312 174.648438 L 311.996094 178.5 L 311.703125 178.675781 C 311.472656 178.132812 311.171875 177.785156 310.800781 177.625 C 309.207031 176.945312 307.398438 176.652344 305.367188 176.75 C 301.480469 176.9375 297.589844 177.039062 293.691406 177.058594 C 292.804688 177.0625 292.628906 176.625 293.167969 175.742188 C 293.691406 174.886719 294.441406 174.488281 295.421875 174.546875 C 296.292969 174.597656 296.75 174.621094 296.792969 174.621094 C 301.511719 174.425781 306.230469 174.433594 310.945312 174.648438 Z M 310.945312 174.648438 " />
    <path style=" stroke:none;fill-rule:nonzero;fill:rgb(30.980392%,40.392157%,27.843137%);fill-opacity:0.980392;" d="M 311.996094 178.5 C 312.382812 179.066406 312.5 179.707031 312.347656 180.425781 L 312.023438 180.398438 L 311.703125 178.675781 Z M 311.996094 178.5 " />
    <path style=" stroke:none;fill-rule:nonzero;fill:rgb(70.196078%,80%,26.666667%);fill-opacity:1;" d="M 244.125 193.929688 C 244.308594 194.292969 244.25 194.589844 243.949219 194.816406 C 243.773438 194.949219 243.683594 195.160156 243.726562 195.335938 C 244.214844 197.304688 244.644531 199.285156 245.015625 201.277344 C 245.089844 201.679688 245.363281 202.390625 245.839844 203.414062 C 246.074219 203.90625 246.207031 204.433594 246.238281 204.996094 C 246.289062 205.761719 246.359375 206.285156 246.441406 206.570312 C 246.855469 207.945312 247.394531 209.265625 248.050781 210.53125 C 248.242188 210.894531 248.742188 212.019531 249.542969 213.90625 C 250.136719 215.300781 251.035156 216.492188 252.246094 217.484375 C 252.363281 217.574219 252.539062 217.511719 252.59375 217.355469 C 252.730469 216.972656 253.011719 217.078125 253.441406 217.671875 C 254.1875 218.699219 255.171875 219.035156 256.390625 218.6875 C 256.609375 218.621094 256.617188 218.527344 256.417969 218.398438 C 255.664062 217.914062 255.886719 217.582031 257.082031 217.398438 C 257.347656 217.355469 257.585938 217.414062 257.710938 217.546875 L 259.523438 219.5 C 259.773438 219.765625 259.9375 219.917969 260.023438 219.953125 L 263.054688 221.199219 L 256.773438 226.359375 C 256.605469 226.5 256.375 226.535156 256.179688 226.449219 C 254.714844 225.820312 252.898438 224.609375 250.734375 222.816406 C 243.890625 217.160156 239.195312 210.074219 236.648438 201.558594 C 236.089844 199.675781 235.886719 197.769531 236.039062 195.839844 C 236.042969 195.792969 236.109375 195.5625 236.230469 195.152344 C 236.324219 194.851562 236.261719 194.546875 236.046875 194.25 C 238.726562 193.90625 241.417969 193.796875 244.125 193.929688 Z M 244.125 193.929688 " />
    <path style=" stroke:none;fill-rule:nonzero;fill:rgb(83.137255%,85.490196%,24.313725%);fill-opacity:1;" d="M 310.246094 205.273438 C 310.988281 206.683594 311.171875 208.085938 310.800781 209.476562 C 310.4375 210.824219 309.898438 212.238281 309.183594 213.722656 C 308.578125 214.980469 307.777344 216.253906 306.78125 217.546875 C 305.394531 219.34375 303.890625 221.105469 302.265625 222.832031 C 302.019531 223.097656 301.84375 223.265625 301.742188 223.335938 L 294.917969 228.121094 C 294.894531 228.140625 294.863281 228.152344 294.824219 228.15625 C 293.648438 228.339844 292.511719 228.640625 291.410156 229.0625 C 289.550781 229.769531 288.453125 230.167969 288.113281 230.25 C 286.605469 230.613281 285.070312 230.835938 283.507812 230.910156 C 281.082031 231.027344 280.785156 231.570312 282.625 232.546875 C 275.992188 233.308594 269.292969 232.390625 262.519531 229.796875 C 262.066406 229.621094 261.960938 229.019531 262.332031 228.703125 C 264.59375 226.78125 267.125 225.117188 269.921875 223.714844 C 271.269531 223.035156 274.023438 221.828125 278.179688 220.09375 C 282.757812 218.183594 287.433594 216.539062 292.199219 215.152344 C 293.644531 214.738281 295.039062 214.234375 296.394531 213.640625 C 297.757812 213.042969 299.128906 212.464844 300.511719 211.910156 C 301.8125 211.386719 302.992188 210.796875 304.050781 210.132812 C 305.175781 209.429688 306.296875 208.714844 307.410156 207.996094 C 308.53125 207.269531 309.476562 206.363281 310.246094 205.273438 Z M 310.246094 205.273438 " />
  </g>
</svg>