<?xml version="1.0" encoding="UTF-8"?><svg id="b" xmlns="http://www.w3.org/2000/svg" width="455.13" height="75.2" viewBox="0 0 455.13 75.2"><g id="c"><g><path d="m41.98,30.13c0,.34-.05.79-.14,1.37l-4.39,22.54c-.38,1.83-1.31,3.35-2.77,4.57-1.46,1.22-3.11,1.84-4.93,1.84H12.6l-1.8,9.12c-.29,1.5-1.04,2.76-2.27,3.8-1.22,1.04-2.58,1.56-4.07,1.56-1.25,0-2.3-.4-3.17-1.19-.86-.79-1.3-1.82-1.3-3.06,0-.24.05-.6.14-1.08L8.78,25.09h27.79c1.49,0,2.76.47,3.82,1.4,1.06.94,1.58,2.15,1.58,3.64Zm-11.66,5.62h-12.96l-2.74,14.04h12.96l2.74-14.04Z" fill="#141e12"/><path d="m82.94,25.09l-6.91,35.35h-27.65c-1.92,0-3.3-.54-4.14-1.62-.84-1.08-1.26-2.12-1.26-3.13,0-.58.07-1.15.22-1.73l4.32-22.32c.34-1.73,1.26-3.25,2.77-4.57,1.51-1.32,3.13-1.98,4.86-1.98h27.79Zm-12.74,10.66h-12.96l-2.74,14.04h12.96l2.74-14.04Z" fill="#141e12"/><path d="m124.7,15.38c0,.29-.05.67-.14,1.15l-8.5,43.91h-27.65c-3.6,0-5.4-1.66-5.4-4.97,0-.34.05-.84.14-1.51l4.32-22.32c.33-1.68,1.27-3.19,2.81-4.54,1.54-1.34,3.14-2.02,4.82-2.02h17.14l1.66-8.54c.29-1.45,1.04-2.7,2.27-3.76s2.58-1.59,4.07-1.59c1.25,0,2.3.38,3.17,1.15.86.77,1.3,1.78,1.3,3.03Zm-14.54,20.37h-12.96l-2.74,14.04h12.96l2.74-14.04Z" fill="#141e12"/><path d="m142.56,15.38c0,.29-.05.67-.14,1.15l-7.49,38.86c-.29,1.54-1.04,2.81-2.27,3.82-1.22,1.01-2.6,1.51-4.14,1.51-1.25,0-2.29-.38-3.13-1.15-.84-.77-1.26-1.78-1.26-3.03,0-.29.05-.67.14-1.15l7.49-38.86c.29-1.54,1.04-2.81,2.27-3.82,1.22-1.01,2.6-1.51,4.14-1.51,1.25,0,2.29.38,3.13,1.15.84.77,1.26,1.78,1.26,3.03Z" fill="#141e12"/><path d="m182.37,30.13c0,.29-.05.72-.14,1.3l-3.17,16.2h-23.62l-.58,2.81h18.43c2.78,0,4.18,1.27,4.18,3.82,0,1.73-.59,3.19-1.76,4.39-1.18,1.2-2.63,1.8-4.36,1.8h-22.46c-1.54,0-2.82-.42-3.85-1.26-1.03-.84-1.55-2-1.55-3.49,0-.58.07-1.15.22-1.73l4.32-22.39c.34-1.73,1.26-3.25,2.77-4.57,1.51-1.32,3.13-1.98,4.86-1.98h21.31c1.54,0,2.82.47,3.85,1.4s1.55,2.17,1.55,3.71Zm-11.52,4.9h-12.96l-.86,4.32h12.96l.86-4.32Z" fill="#141e12"/></g><g><path d="m318.98,29.2c0,1.68-.61,3.12-1.84,4.32-1.22,1.2-2.68,1.8-4.36,1.8h-17.42l-.5,2.52h17.14c1.39,0,2.65.46,3.78,1.37,1.13.91,1.69,2.06,1.69,3.46,0,.05-.07.58-.22,1.58l-1.94,9.79c-.38,1.83-1.31,3.35-2.77,4.57-1.46,1.22-3.11,1.84-4.93,1.84h-22.46c-2.74,0-4.1-1.3-4.1-3.89,0-1.63.6-3.11,1.8-4.43,1.2-1.32,2.64-1.98,4.32-1.98h18.29l.5-2.52h-17.14c-3.6,0-5.4-1.66-5.4-4.97,0-.33.05-.84.14-1.51l1.87-9.58c.34-1.73,1.26-3.25,2.77-4.57,1.51-1.32,3.13-1.98,4.86-1.98h21.74c1.25,0,2.26.38,3.02,1.15.77.77,1.15,1.78,1.15,3.02Z" fill="#141e12"/><path d="m347.2,29.48c0,1.73-.64,3.19-1.91,4.39-1.27,1.2-2.8,1.8-4.57,1.8h-1.44l-3.82,19.73c-.29,1.54-1.04,2.81-2.27,3.82-1.22,1.01-2.6,1.51-4.14,1.51-1.25,0-2.29-.38-3.13-1.15-.84-.77-1.26-1.78-1.26-3.02,0-.29.05-.67.14-1.15l3.82-19.73h-1.44c-1.25,0-2.29-.37-3.13-1.12-.84-.74-1.26-1.74-1.26-2.99,0-1.73.65-3.25,1.94-4.57,1.3-1.32,2.81-1.98,4.54-1.98h1.44l1.58-8.47c.29-1.54,1.04-2.82,2.27-3.84,1.22-1.01,2.6-1.52,4.14-1.52,1.25,0,2.29.39,3.13,1.16.84.77,1.26,1.79,1.26,3.04,0,.29-.05.68-.14,1.16l-1.58,8.47h1.44c1.2,0,2.23.43,3.1,1.3.86.86,1.3,1.92,1.3,3.17Z" fill="#141e12"/><path d="m387.88,25.09l-6.91,35.35h-27.65c-1.92,0-3.3-.54-4.14-1.62-.84-1.08-1.26-2.12-1.26-3.13,0-.58.07-1.15.22-1.73l4.32-22.32c.34-1.73,1.26-3.25,2.77-4.57,1.51-1.32,3.13-1.98,4.86-1.98h27.79Zm-12.74,10.66h-12.96l-2.74,14.04h12.96l2.74-14.04Z" fill="#141e12"/><path d="m414.16,29.48c0,1.73-.64,3.19-1.91,4.39-1.27,1.2-2.8,1.8-4.57,1.8h-1.44l-3.82,19.73c-.29,1.54-1.04,2.81-2.27,3.82-1.22,1.01-2.6,1.51-4.14,1.51-1.25,0-2.29-.38-3.13-1.15-.84-.77-1.26-1.78-1.26-3.02,0-.29.05-.67.14-1.15l3.82-19.73h-1.44c-1.25,0-2.29-.37-3.13-1.12-.84-.74-1.26-1.74-1.26-2.99,0-1.73.65-3.25,1.94-4.57,1.3-1.32,2.81-1.98,4.54-1.98h1.44l1.58-8.47c.29-1.54,1.04-2.82,2.27-3.84,1.22-1.01,2.6-1.52,4.14-1.52,1.25,0,2.29.39,3.13,1.16.84.77,1.26,1.79,1.26,3.04,0,.29-.05.68-.14,1.16l-1.58,8.47h1.44c1.2,0,2.23.43,3.1,1.3.86.86,1.3,1.92,1.3,3.17Z" fill="#141e12"/><path d="m453.04,29.2c0,1.68-.61,3.12-1.84,4.32-1.22,1.2-2.68,1.8-4.36,1.8h-17.42l-.5,2.52h17.14c1.39,0,2.65.46,3.78,1.37,1.13.91,1.69,2.06,1.69,3.46,0,.05-.07.58-.22,1.58l-1.94,9.79c-.38,1.83-1.31,3.35-2.77,4.57-1.46,1.22-3.11,1.84-4.93,1.84h-22.46c-2.74,0-4.1-1.3-4.1-3.89,0-1.63.6-3.11,1.8-4.43,1.2-1.32,2.64-1.98,4.32-1.98h18.29l.5-2.52h-17.14c-3.6,0-5.4-1.66-5.4-4.97,0-.33.05-.84.14-1.51l1.87-9.58c.34-1.73,1.26-3.25,2.77-4.57,1.51-1.32,3.13-1.98,4.86-1.98h21.74c1.25,0,2.26.38,3.02,1.15.77.77,1.15,1.78,1.15,3.02Z" fill="#141e12"/></g><g><path d="m204.68,37.11c.29,6.62,3.17,12.44,8.09,16.41,5.12,4.12,11.83,5.81,18.41,4.65,3.91-.69,7.79-2.7,11.24-5.82,2.09-1.9,4-4.01,5.67-6.29,4.88-6.66,6.11-15.17,3.22-22.21-3.35-8.14-10.7-13.24-19.67-13.63-6.3.41-11.57-1.22-15.24-4.71-.12-.12-.22-.26-.28-.4-7.21,3.44-13.09,9.21-16.68,16.34.13.06.26.14.36.25,3.61,3.68,5.3,9.01,4.88,15.42Z" fill="#99d52a"/><path d="m231.6,1.6c-4.57,0-8.95.86-12.97,2.42,3.13,2.72,7.58,3.98,12.91,3.62h.07s.07,0,.07,0c10.04.42,18.27,6.11,22.01,15.23,3.23,7.87,1.88,17.34-3.52,24.71-1.77,2.41-3.79,4.66-6.02,6.67-3.81,3.45-8.14,5.68-12.52,6.45-1.51.27-3.02.4-4.53.4-5.79,0-11.42-1.94-15.94-5.57-5.53-4.45-8.75-10.98-9.06-18.38v-.07s0-.07,0-.07c.37-5.47-.95-9.98-3.8-13.12-1.74,4.23-2.71,8.86-2.71,13.72,0,19.88,16.12,36,36,36s36-16.12,36-36S251.48,1.6,231.6,1.6Z" fill="#99d52a"/></g></g></svg>