<?xml version="1.0" encoding="UTF-8"?><svg id="b" xmlns="http://www.w3.org/2000/svg" width="175.53" height="75.2" viewBox="0 0 175.53 75.2"><g id="c"><g><path d="m39.38,29.2c0,1.68-.61,3.12-1.84,4.32-1.22,1.2-2.68,1.8-4.36,1.8H15.77l-.5,2.52h17.14c1.39,0,2.65.46,3.78,1.37,1.13.91,1.69,2.06,1.69,3.46,0,.05-.07.58-.22,1.58l-1.94,9.79c-.38,1.83-1.31,3.35-2.77,4.57-1.46,1.22-3.11,1.84-4.93,1.84H5.54c-2.74,0-4.1-1.3-4.1-3.89,0-1.63.6-3.11,1.8-4.43,1.2-1.32,2.64-1.98,4.32-1.98h18.29l.5-2.52H9.22c-3.6,0-5.4-1.66-5.4-4.97,0-.33.05-.84.14-1.51l1.87-9.58c.34-1.73,1.26-3.25,2.77-4.57,1.51-1.32,3.13-1.98,4.86-1.98h21.74c1.25,0,2.26.38,3.02,1.15.77.77,1.15,1.78,1.15,3.02Z" fill="#141e12"/><path d="m67.61,29.48c0,1.73-.64,3.19-1.91,4.39-1.27,1.2-2.8,1.8-4.57,1.8h-1.44l-3.82,19.73c-.29,1.54-1.04,2.81-2.27,3.82-1.22,1.01-2.6,1.51-4.14,1.51-1.25,0-2.29-.38-3.13-1.15-.84-.77-1.26-1.78-1.26-3.02,0-.29.05-.67.14-1.15l3.82-19.73h-1.44c-1.25,0-2.29-.37-3.13-1.12-.84-.74-1.26-1.74-1.26-2.99,0-1.73.65-3.25,1.94-4.57,1.3-1.32,2.81-1.98,4.54-1.98h1.44l1.58-8.47c.29-1.54,1.04-2.82,2.27-3.84,1.22-1.01,2.6-1.52,4.14-1.52,1.25,0,2.29.39,3.13,1.16.84.77,1.26,1.79,1.26,3.04,0,.29-.05.68-.14,1.16l-1.58,8.47h1.44c1.2,0,2.23.43,3.1,1.3.86.86,1.3,1.92,1.3,3.17Z" fill="#141e12"/><path d="m108.29,25.09l-6.91,35.35h-27.65c-1.92,0-3.3-.54-4.14-1.62-.84-1.08-1.26-2.12-1.26-3.13,0-.58.07-1.15.22-1.73l4.32-22.32c.34-1.73,1.26-3.25,2.77-4.57,1.51-1.32,3.13-1.98,4.86-1.98h27.79Zm-12.74,10.66h-12.96l-2.74,14.04h12.96l2.74-14.04Z" fill="#141e12"/><path d="m134.57,29.48c0,1.73-.64,3.19-1.91,4.39-1.27,1.2-2.8,1.8-4.57,1.8h-1.44l-3.82,19.73c-.29,1.54-1.04,2.81-2.27,3.82-1.22,1.01-2.6,1.51-4.14,1.51-1.25,0-2.29-.38-3.13-1.15-.84-.77-1.26-1.78-1.26-3.02,0-.29.05-.67.14-1.15l3.82-19.73h-1.44c-1.25,0-2.29-.37-3.13-1.12-.84-.74-1.26-1.74-1.26-2.99,0-1.73.65-3.25,1.94-4.57,1.3-1.32,2.81-1.98,4.54-1.98h1.44l1.58-8.47c.29-1.54,1.04-2.82,2.27-3.84,1.22-1.01,2.6-1.52,4.14-1.52,1.25,0,2.29.39,3.13,1.16.84.77,1.26,1.79,1.26,3.04,0,.29-.05.68-.14,1.16l-1.58,8.47h1.44c1.2,0,2.23.43,3.1,1.3.86.86,1.3,1.92,1.3,3.17Z" fill="#141e12"/><path d="m173.44,29.2c0,1.68-.61,3.12-1.84,4.32-1.22,1.2-2.68,1.8-4.36,1.8h-17.42l-.5,2.52h17.14c1.39,0,2.65.46,3.78,1.37,1.13.91,1.69,2.06,1.69,3.46,0,.05-.07.58-.22,1.58l-1.94,9.79c-.38,1.83-1.31,3.35-2.77,4.57-1.46,1.22-3.11,1.84-4.93,1.84h-22.46c-2.74,0-4.1-1.3-4.1-3.89,0-1.63.6-3.11,1.8-4.43,1.2-1.32,2.64-1.98,4.32-1.98h18.29l.5-2.52h-17.14c-3.6,0-5.4-1.66-5.4-4.97,0-.33.05-.84.14-1.51l1.87-9.58c.34-1.73,1.26-3.25,2.77-4.57,1.51-1.32,3.13-1.98,4.86-1.98h21.74c1.25,0,2.26.38,3.02,1.15.77.77,1.15,1.78,1.15,3.02Z" fill="#141e12"/></g></g></svg>